<svg id="Layer_1" data-name="Layer 1" xmlns="http://www.w3.org/2000/svg" viewBox="0 0 130.05 45"><defs><style>.cls-1{fill:#0b938a;}.cls-2{fill:#004cac;}.cls-3{fill:#00b5f1;}.cls-4{fill:#007773;}.cls-5{fill:#003c3b;}.cls-6{fill:#fff;}.cls-7{fill:#3ab3a5;}</style></defs><g id="Group_1610" data-name="Group 1610"><g id="Group_1605" data-name="Group 1605"><path id="Path_2507" data-name="Path 2507" class="cls-1" d="M80,14.64h5.21a4.25,4.25,0,0,1,4.59,3.86,4.7,4.7,0,0,1,0,.65v1a4.24,4.24,0,0,1-3.94,4.52,4.73,4.73,0,0,1-.65,0H81.57v4.47H80Zm5.21,8.58c2,0,3-1.17,3-3.35v-.45c0-2.17-1.07-3.33-3-3.33H81.57v7.13Z" transform="translate(-24.98 -2.5)"/><path id="Path_2508" data-name="Path 2508" class="cls-1" d="M91.85,17.54h1.46v7.61c0,2,.44,2.85,2.34,2.85a4.27,4.27,0,0,0,3.1-1.65V17.54h1.47V29.12h-1.3l-.1-1.26a4.82,4.82,0,0,1-3.33,1.46c-2.67,0-3.64-1.28-3.64-3.9Z" transform="translate(-24.98 -2.5)"/><path id="Path_2509" data-name="Path 2509" class="cls-1" d="M102.91,17.54h1.3l.1,1.26a4.56,4.56,0,0,1,3.21-1.47c2.58,0,3.84,1.28,3.84,3.91v7.88h-1.47V21.51c0-2-.62-2.86-2.48-2.86a4.14,4.14,0,0,0-3,1.66v8.81h-1.46Z" transform="translate(-24.98 -2.5)"/><path id="Path_2510" data-name="Path 2510" class="cls-1" d="M114,18.84H112.7v-1.3H114l.17-2.89h1.3v2.89h3.66v1.3h-3.66V25.4c0,1.86.76,2.72,2.46,2.72a5.28,5.28,0,0,0,1.63-.2v1.22a6.46,6.46,0,0,1-1.63.27c-2.53,0-3.93-1.18-3.93-3.8Z" transform="translate(-24.98 -2.5)"/><path id="Path_2511" data-name="Path 2511" class="cls-1" d="M120.87,21.55c0-2.63,1.67-4.22,4.36-4.22s4.36,1.59,4.36,4.22v3.56c0,2.62-1.67,4.21-4.36,4.21s-4.36-1.59-4.36-4.21Zm1.46,3.31c0,2.07,1,3.14,2.9,3.14s2.89-1.07,2.89-3.14V21.8c0-2.07-1-3.14-2.89-3.14s-2.9,1.07-2.9,3.14Z" transform="translate(-24.98 -2.5)"/><path id="Path_2512" data-name="Path 2512" class="cls-1" d="M88.73,47.21h-1.3L87.33,46A4.78,4.78,0,0,1,84,47.42c-2.59,0-3.93-1.49-3.93-4.11V39.54c0-2.62,1.34-4.11,3.93-4.11a4.59,4.59,0,0,1,3.22,1.36V31.71h1.47ZM81.57,43c0,2,.7,3.06,2.57,3.06a4.29,4.29,0,0,0,3.12-1.66v-6a4.4,4.4,0,0,0-3.12-1.66c-1.87,0-2.57,1.08-2.57,3.06Z" transform="translate(-24.98 -2.5)"/><path id="Path_2513" data-name="Path 2513" class="cls-1" d="M91.29,39.65c0-2.63,1.68-4.22,4.36-4.22S100,37,100,39.65v2.11H92.76V43c0,2.06,1,3.14,2.89,3.14,2,0,2.88-1.2,2.88-2.48v-.13H100v.33c0,1.82-1.56,3.6-4.3,3.6s-4.37-1.59-4.37-4.22Zm7.26.8V39.9c0-2.07-1-3.15-2.9-3.15s-2.89,1.08-2.89,3.15v.55Z" transform="translate(-24.98 -2.5)"/><path id="Path_2514" data-name="Path 2514" class="cls-1" d="M106.8,35.63h1.59l3.27,9.87,3.27-9.87h1.57l-4.07,11.58h-1.58Z" transform="translate(-24.98 -2.5)"/><path id="Path_2515" data-name="Path 2515" class="cls-1" d="M117.2,39.65c0-2.63,1.68-4.22,4.37-4.22s4.36,1.59,4.36,4.22v2.11h-7.26V43c0,2.06,1,3.14,2.9,3.14,2.05,0,2.87-1.2,2.87-2.48v-.13h1.43v.33c0,1.82-1.55,3.6-4.3,3.6s-4.36-1.59-4.36-4.22Zm7.26.8V39.9c0-2.07-1-3.15-2.89-3.15s-2.9,1.08-2.9,3.15v.55Z" transform="translate(-24.98 -2.5)"/><path id="Path_2516" data-name="Path 2516" class="cls-1" d="M128.45,35.63h1.3l.1,1.27a4.58,4.58,0,0,1,3.21-1.47c2.58,0,3.84,1.28,3.84,3.91v7.87h-1.46V39.6c0-2-.62-2.85-2.49-2.85a4.16,4.16,0,0,0-3,1.66v8.8h-1.46Z" transform="translate(-24.98 -2.5)"/><path id="Path_2517" data-name="Path 2517" class="cls-1" d="M139.56,36.94h-1.32v-1.3h1.32l.17-2.9H141v2.9h3.66v1.3H141v6.55c0,1.86.76,2.73,2.46,2.73a5.61,5.61,0,0,0,1.63-.21v1.22a5.68,5.68,0,0,1-1.63.27c-2.52,0-3.93-1.18-3.93-3.8Z" transform="translate(-24.98 -2.5)"/><path id="Path_2518" data-name="Path 2518" class="cls-1" d="M146.41,39.54c0-2.62,1.34-4.11,3.93-4.11a4.8,4.8,0,0,1,3.28,1.47l.1-1.27H155V47.21h-1.3l-.1-1.26a4.76,4.76,0,0,1-3.28,1.47c-2.59,0-3.93-1.49-3.93-4.12Zm1.47,3.5c0,2,.7,3.06,2.56,3.06a4.27,4.27,0,0,0,3.12-1.66v-6a4.38,4.38,0,0,0-3.12-1.65c-1.86,0-2.56,1.07-2.56,3.06Z" transform="translate(-24.98 -2.5)"/></g><g id="Group_1606" data-name="Group 1606"><path id="Path_2519" data-name="Path 2519" class="cls-2" d="M138.7,9.18a2.27,2.27,0,0,1-3.85-1.63,2.2,2.2,0,0,1,.71-1.65,2.3,2.3,0,0,1,1.56-.61,2.26,2.26,0,0,1,2.26,2.26,2.17,2.17,0,0,1-.68,1.63m-2.92-2.94a1.85,1.85,0,0,0-.54,1.31,1.81,1.81,0,0,0,.55,1.34A1.88,1.88,0,0,0,139,7.55a1.9,1.9,0,0,0-.55-1.31,1.75,1.75,0,0,0-1.32-.56,1.78,1.78,0,0,0-1.34.56m.35,2.57V6.3h1.21a1.46,1.46,0,0,1,.5.12.64.64,0,0,1,.33.61.57.57,0,0,1-.17.46.88.88,0,0,1-.44.17.93.93,0,0,1,.36.14.68.68,0,0,1,.22.57V8.6a.17.17,0,0,0,0,.07.22.22,0,0,0,0,.08l0,.07h-.63a1.39,1.39,0,0,1,0-.35,1.1,1.1,0,0,0,0-.31A.32.32,0,0,0,137.3,8a.45.45,0,0,0-.23,0h-.29v.89Zm1.2-2a1,1,0,0,0-.39,0h-.16v.73H137a.6.6,0,0,0,.36-.1.33.33,0,0,0,.13-.29.27.27,0,0,0-.21-.29" transform="translate(-24.98 -2.5)"/><path id="Path_2520" data-name="Path 2520" class="cls-2" d="M90.44,10.82a4.52,4.52,0,0,1-1.66-.34,3,3,0,0,1-1.33-1.09,3.26,3.26,0,0,1-.52-1.92,4.73,4.73,0,0,1,.33-1.82,3.87,3.87,0,0,1,.92-1.34,3.8,3.8,0,0,1,1.32-.8,4.5,4.5,0,0,1,1.58-.28,4,4,0,0,1,1.76.41,3,3,0,0,1,1.23,1.17,3.57,3.57,0,0,1,.44,1.79,4.77,4.77,0,0,1-.29,1.67,3.85,3.85,0,0,1-.82,1.34,3.65,3.65,0,0,1-1.28.89,4.24,4.24,0,0,1-1.68.31M91,4.73a2.11,2.11,0,0,0-1.26.41,2.55,2.55,0,0,0-.8,1,3.24,3.24,0,0,0-.27,1.23,2.08,2.08,0,0,0,.48,1.37,1.63,1.63,0,0,0,1.33.56,2,2,0,0,0,1-.21,2.29,2.29,0,0,0,.73-.58,2.46,2.46,0,0,0,.46-.84,3.09,3.09,0,0,0,.15-.95,2.19,2.19,0,0,0-.22-1,1.65,1.65,0,0,0-1.55-1" transform="translate(-24.98 -2.5)"/><path id="Path_2521" data-name="Path 2521" class="cls-2" d="M104.81,10.75l.89-6h-2.44l.12-.77h0V4a.71.71,0,0,1,.71-.65h6l-.13.83v0a.71.71,0,0,1-.7.6h-1.85l-.88,6Z" transform="translate(-24.98 -2.5)"/><path id="Path_2522" data-name="Path 2522" class="cls-2" d="M115.15,3.93a2.68,2.68,0,0,0-2-.62h-2.38l-1.09,7.43h.92a.87.87,0,0,0,.86-.74v0l.29-2h1.35a2.88,2.88,0,0,0,1.49-.35,2.17,2.17,0,0,0,.85-.9,2.73,2.73,0,0,0,.27-1.23,2.21,2.21,0,0,0-.6-1.6M114,5.61A1.41,1.41,0,0,1,112.76,7H112l.38-2.53a2.67,2.67,0,0,1,.69,0c.45,0,1.07.18,1,1.23" transform="translate(-24.98 -2.5)"/><path id="Path_2523" data-name="Path 2523" class="cls-2" d="M101.07,3.3l-.7,4.81L98.25,4.69A2.72,2.72,0,0,0,95.87,3.3h-.09l-1.1,7.44h1.68l.71-4.81,2.11,3.42a2.74,2.74,0,0,0,2.38,1.39h.1l1.1-7.44Zm-.7,4.81Z" transform="translate(-24.98 -2.5)"/><path id="Path_2524" data-name="Path 2524" class="cls-2" d="M119.86,3.31h-.57a2.09,2.09,0,0,0-1.81,1.07l-.06.1,0,0-3.18,6.22H116L116.79,9h2.42l.2,1.71h1.81ZM117.29,8l1.43-2.94.4,2.94Z" transform="translate(-24.98 -2.5)"/><path id="Path_2525" data-name="Path 2525" class="cls-2" d="M128.71,9.16l-.24-.23a4,4,0,0,0,.31-.66,4.76,4.76,0,0,0,.28-1.67,3.5,3.5,0,0,0-.44-1.79,3,3,0,0,0-1.22-1.17,3.86,3.86,0,0,0-1.77-.4,4.26,4.26,0,0,0-1.57.27,3.83,3.83,0,0,0-1.32.81,3.7,3.7,0,0,0-.92,1.33,4.74,4.74,0,0,0-.34,1.82A3.33,3.33,0,0,0,122,9.39a3,3,0,0,0,1.34,1.09,4.24,4.24,0,0,0,1.65.34,4.37,4.37,0,0,0,1.68-.32,2.82,2.82,0,0,0,.49-.25l.23.22a.9.9,0,0,0,.66.27H129V9.81h0a.9.9,0,0,0-.28-.65M125,9.32a1.67,1.67,0,0,1-1.32-.57,2.07,2.07,0,0,1-.48-1.37,2.93,2.93,0,0,1,.27-1.23,2.47,2.47,0,0,1,.8-1,2,2,0,0,1,1.25-.4,1.65,1.65,0,0,1,1.55,1,2.32,2.32,0,0,1,.23,1,3.09,3.09,0,0,1-.15.95,2.65,2.65,0,0,1-.46.84,2.29,2.29,0,0,1-.73.58,2,2,0,0,1-1,.21" transform="translate(-24.98 -2.5)"/><path id="Path_2526" data-name="Path 2526" class="cls-2" d="M86.29,5s-2.42-.75-3.59.38S81.51,8.3,82.79,9a3.9,3.9,0,0,0,3.49-.44,2.25,2.25,0,0,1-.16,1.4c-.35.72-2.34,1.13-4,.57A3.13,3.13,0,0,1,80,7a4,4,0,0,1,3.21-3.63A8.19,8.19,0,0,1,87,3.56Z" transform="translate(-24.98 -2.5)"/><path id="Path_2527" data-name="Path 2527" class="cls-2" d="M133.7,5.29h-1.26a1,1,0,0,0-1,.79l-.7,4.66h0a3.43,3.43,0,0,0,1.35-1.15,6.82,6.82,0,0,0,1.28-2.23Z" transform="translate(-24.98 -2.5)"/><path id="Path_2528" data-name="Path 2528" class="cls-2" d="M132.89,4.62a1.06,1.06,0,1,0,0-2.12,1.05,1.05,0,0,0-1.06,1.06h0a1.06,1.06,0,0,0,1.06,1.06h0" transform="translate(-24.98 -2.5)"/><path id="Path_2529" data-name="Path 2529" class="cls-3" d="M132.13,9.59a3.61,3.61,0,0,1-1.35,1.16h1.27a1,1,0,0,0,1-.78l.38-2.61a6.69,6.69,0,0,1-1.27,2.23" transform="translate(-24.98 -2.5)"/></g><g id="Group_1609" data-name="Group 1609"><path id="Path_2530" data-name="Path 2530" class="cls-4" d="M62,6.79c-.08-.09-.17-.17-.25-.25a6.16,6.16,0,0,0-6-1.28L46.45,8.18a9.06,9.06,0,0,0-3.68,2.23L26.3,26.9a4.53,4.53,0,0,0,0,6.41l9.29,9.3a4.53,4.53,0,0,0,6.4,0h0L58.34,26a9,9,0,0,0,2.21-3.67L63.47,13A6.18,6.18,0,0,0,62,6.79Z" transform="translate(-24.98 -2.5)"/><path id="Path_2531" data-name="Path 2531" class="cls-5" d="M61.76,6.54a6.17,6.17,0,0,0-6-1.28l-2.87.9a7.11,7.11,0,0,0-.85,1.13L46.86,16a9.54,9.54,0,0,0-1.35,4.18L43.93,40.64,58.34,26a9,9,0,0,0,2.21-3.67L63.47,13A6.17,6.17,0,0,0,62,6.79C61.93,6.7,61.84,6.62,61.76,6.54Z" transform="translate(-24.98 -2.5)"/><g id="Group_1608" data-name="Group 1608"><ellipse id="Ellipse_138" data-name="Ellipse 138" class="cls-6" cx="33" cy="8.63" rx="3.47" ry="3.44"/><path id="Rectangle_1621" data-name="Rectangle 1621" class="cls-1" d="M46.75,32.48H68.94v6.08a8.77,8.77,0,0,1-8.76,8.77H55.52a8.77,8.77,0,0,1-8.77-8.77V32.48Z" transform="translate(-24.98 -2.5)"/><g id="Group_1607" data-name="Group 1607"><path id="Path_2532" data-name="Path 2532" class="cls-7" d="M63.19,7.3,67.9,16a9.06,9.06,0,0,1,1,4.17V32.48H46.75V20.14a9,9,0,0,1,1-4.18l4.54-8.67A6.15,6.15,0,0,1,57.44,4h.36A6.15,6.15,0,0,1,63.19,7.3Z" transform="translate(-24.98 -2.5)"/></g><ellipse id="Ellipse_139" data-name="Ellipse 139" class="cls-6" cx="33" cy="8.63" rx="3.2" ry="3.17"/><path id="Path_2533" data-name="Path 2533" class="cls-4" d="M68.12,6,59,12.11a1.45,1.45,0,0,1-2-.4h0a1.41,1.41,0,0,1,.39-2h0l9.09-6.15a1.43,1.43,0,0,1,2,.4h0a1.41,1.41,0,0,1-.39,2Z" transform="translate(-24.98 -2.5)"/></g><path id="Rectangle_1622" data-name="Rectangle 1622" class="cls-1" d="M46.75,32.48H68.94v6.08a8.77,8.77,0,0,1-8.76,8.77H55.52a8.77,8.77,0,0,1-8.77-8.77V32.48Z" transform="translate(-24.98 -2.5)"/></g></g></svg>