<svg id="Layer_1" data-name="Layer 1" xmlns="http://www.w3.org/2000/svg" viewBox="0 0 153.21 45"><defs><style>.cls-1{fill:#004cac;}.cls-2{fill:#00b5f1;}.cls-3{fill:#0b938a;}.cls-4{fill:#3ab3a5;}.cls-5{fill:#003c3b;}.cls-6{fill:#005e5c;}.cls-7{fill:#fff;}.cls-8{fill:#67737a;}</style></defs><g id="Group_1604" data-name="Group 1604"><g id="Group_1599" data-name="Group 1599"><path id="Path_2471" data-name="Path 2471" class="cls-1" d="M127.6,11.41a2.31,2.31,0,0,1-3.28,0,2.26,2.26,0,0,1-.66-1.63,2.18,2.18,0,0,1,.73-1.69A2.29,2.29,0,0,1,126,7.43a2.32,2.32,0,0,1,2.32,2.31,2.25,2.25,0,0,1-.7,1.67m-3-3a1.88,1.88,0,0,0-.56,1.34,1.85,1.85,0,0,0,.56,1.37,1.92,1.92,0,0,0,2.7,0,1.91,1.91,0,0,0,0-2.71A1.74,1.74,0,0,0,126,7.83a1.78,1.78,0,0,0-1.37.57M125,11V8.46h1.24a1.46,1.46,0,0,1,.51.12.66.66,0,0,1,.34.63.54.54,0,0,1-.17.46.84.84,0,0,1-.45.18.85.85,0,0,1,.37.15.68.68,0,0,1,.22.57v.23a.22.22,0,0,0,0,.08s0,0,0,.08l0,.06h-.64a2,2,0,0,1-.05-.35,1.1,1.1,0,0,0,0-.31.3.3,0,0,0-.19-.19.59.59,0,0,0-.23,0h-.29V11ZM126.19,9a1,1,0,0,0-.39-.05h-.17v.75h.26a.69.69,0,0,0,.37-.1.35.35,0,0,0,.14-.3.29.29,0,0,0-.21-.3" transform="translate(-13.4 -2.5)"/><path id="Path_2472" data-name="Path 2472" class="cls-1" d="M78.2,13.08a4.47,4.47,0,0,1-1.69-.34,3,3,0,0,1-1.36-1.12,3.33,3.33,0,0,1-.54-2A4.73,4.73,0,0,1,75,7.8a3.92,3.92,0,0,1,.93-1.37,4,4,0,0,1,1.36-.83,4.66,4.66,0,0,1,1.61-.28,3.87,3.87,0,0,1,1.8.42,3,3,0,0,1,1.25,1.19,3.66,3.66,0,0,1,.46,1.83,5.26,5.26,0,0,1-.29,1.72,4,4,0,0,1-.85,1.37,3.86,3.86,0,0,1-1.31.91,4.41,4.41,0,0,1-1.72.32m.57-6.22a2.11,2.11,0,0,0-1.29.41,2.61,2.61,0,0,0-.82,1,3,3,0,0,0-.27,1.25,2,2,0,0,0,.49,1.4,1.68,1.68,0,0,0,1.35.59,2.23,2.23,0,0,0,1-.22,2.29,2.29,0,0,0,.75-.6,2.49,2.49,0,0,0,.47-.86,3.17,3.17,0,0,0,.15-1,2.32,2.32,0,0,0-.23-1.07,1.7,1.7,0,0,0-1.58-1" transform="translate(-13.4 -2.5)"/><path id="Path_2473" data-name="Path 2473" class="cls-1" d="M92.92,13l.91-6.13h-2.5l.12-.8h0v0a.74.74,0,0,1,.73-.66h6.11l-.13.85h0a.74.74,0,0,1-.73.62H95.54L94.64,13Z" transform="translate(-13.4 -2.5)"/><path id="Path_2474" data-name="Path 2474" class="cls-1" d="M103.5,6a2.68,2.68,0,0,0-2-.64H99.05L97.94,13h.94a.9.9,0,0,0,.88-.77h0l.3-2h1.38A2.89,2.89,0,0,0,103,9.85a2.12,2.12,0,0,0,.87-.91,2.79,2.79,0,0,0,.28-1.26A2.29,2.29,0,0,0,103.5,6m-1.19,1.71a1.45,1.45,0,0,1-1.26,1.38h-.84l.39-2.6a3.39,3.39,0,0,1,.71,0c.46,0,1.1.18,1,1.26" transform="translate(-13.4 -2.5)"/><path id="Path_2475" data-name="Path 2475" class="cls-1" d="M89.09,5.39l-.72,4.92L86.2,6.81a2.75,2.75,0,0,0-2.43-1.42h-.1L82.54,13h1.72L85,8.08l2.16,3.5A2.8,2.8,0,0,0,89.59,13h.1l1.12-7.61Zm-.72,4.92Z" transform="translate(-13.4 -2.5)"/><path id="Path_2476" data-name="Path 2476" class="cls-1" d="M108.32,5.4h-.59a2.12,2.12,0,0,0-1.85,1.09l-.07.1a.12.12,0,0,1,0,0L102.53,13h1.79l.85-1.75h2.48l.21,1.75h1.85Zm-2.63,4.79,1.46-3,.41,3Z" transform="translate(-13.4 -2.5)"/><path id="Path_2477" data-name="Path 2477" class="cls-1" d="M117.37,11.39l-.24-.24a4.12,4.12,0,0,0,.32-.67,5.25,5.25,0,0,0,.29-1.71,3.66,3.66,0,0,0-.46-1.83A3,3,0,0,0,116,5.74a3.89,3.89,0,0,0-1.8-.41,4.62,4.62,0,0,0-1.61.27,4.11,4.11,0,0,0-1.36.83,3.82,3.82,0,0,0-.94,1.37A4.72,4.72,0,0,0,110,9.66a3.42,3.42,0,0,0,.53,2,3.11,3.11,0,0,0,1.37,1.11,4.25,4.25,0,0,0,1.69.34,4.41,4.41,0,0,0,1.72-.32,4.66,4.66,0,0,0,.5-.25l.23.22a1,1,0,0,0,.67.28h1v-.95h0a1,1,0,0,0-.27-.68m-3.77.16a1.68,1.68,0,0,1-1.36-.58,2.1,2.1,0,0,1-.49-1.4A3,3,0,0,1,112,8.31a2.58,2.58,0,0,1,.81-1,2.07,2.07,0,0,1,1.29-.41,1.71,1.71,0,0,1,1.59,1A2.6,2.6,0,0,1,116,8.9a3.18,3.18,0,0,1-.16,1,2.58,2.58,0,0,1-.47.86,2.31,2.31,0,0,1-.75.6,2,2,0,0,1-1,.21" transform="translate(-13.4 -2.5)"/><path id="Path_2478" data-name="Path 2478" class="cls-1" d="M74,7.12s-2.47-.77-3.67.39-1.22,3,.09,3.73S73.8,11,74,10.79a2.24,2.24,0,0,1-.17,1.44c-.35.73-2.4,1.15-4,.58A3.2,3.2,0,0,1,67.56,9.2a4.11,4.11,0,0,1,3.29-3.72,8.44,8.44,0,0,1,3.87.18Z" transform="translate(-13.4 -2.5)"/><path id="Path_2479" data-name="Path 2479" class="cls-1" d="M122.48,7.43h-1.29a1,1,0,0,0-1,.8L119.47,13h0a3.53,3.53,0,0,0,1.38-1.19,6.72,6.72,0,0,0,1.3-2.28Z" transform="translate(-13.4 -2.5)"/><path id="Path_2480" data-name="Path 2480" class="cls-1" d="M121.65,6.74a1.09,1.09,0,1,0-1.08-1.08h0a1.08,1.08,0,0,0,1.08,1.08h0" transform="translate(-13.4 -2.5)"/><path id="Path_2481" data-name="Path 2481" class="cls-2" d="M120.87,11.82A3.53,3.53,0,0,1,119.49,13h1.3a1,1,0,0,0,1-.8l.39-2.67a6.82,6.82,0,0,1-1.3,2.28" transform="translate(-13.4 -2.5)"/></g><g id="Group_1600" data-name="Group 1600"><path id="Path_2482" data-name="Path 2482" class="cls-3" d="M67.54,18.7h5.34a4.33,4.33,0,0,1,4.69,3.94,5,5,0,0,1,0,.67v1a4.35,4.35,0,0,1-4,4.62,5,5,0,0,1-.67,0H69.13v4.57H67.54Zm5.34,8.78c2,0,3.11-1.21,3.11-3.43v-.46c0-2.23-1.1-3.41-3.11-3.41H69.13v7.3Z" transform="translate(-13.4 -2.5)"/><path id="Path_2483" data-name="Path 2483" class="cls-3" d="M79.69,21.66H81l.13,1.48a4.16,4.16,0,0,1,3.24-1.69h.13v1.4h-.24a3.81,3.81,0,0,0-3.07,1.84v8.82h-1.5Z" transform="translate(-13.4 -2.5)"/><path id="Path_2484" data-name="Path 2484" class="cls-3" d="M85.32,25.77c0-2.69,1.72-4.32,4.47-4.32s4.46,1.63,4.46,4.32v3.64c0,2.68-1.71,4.31-4.46,4.31s-4.47-1.63-4.47-4.31Zm1.5,3.38c0,2.12,1.06,3.22,3,3.22s3-1.1,3-3.22V26c0-2.12-1.06-3.22-3-3.22s-3,1.1-3,3.22Z" transform="translate(-13.4 -2.5)"/><path id="Path_2485" data-name="Path 2485" class="cls-3" d="M105.58,33.51h-1.34l-.1-1.29a4.87,4.87,0,0,1-3.37,1.5c-2.64,0-4-1.52-4-4.21V25.66c0-2.69,1.38-4.21,4-4.21a4.71,4.71,0,0,1,3.3,1.4V17.64h1.5Zm-7.33-4.27c0,2,.72,3.13,2.63,3.13a4.44,4.44,0,0,0,3.2-1.69V24.5a4.56,4.56,0,0,0-3.2-1.7c-1.9,0-2.63,1.1-2.63,3.14Z" transform="translate(-13.4 -2.5)"/><path id="Path_2486" data-name="Path 2486" class="cls-3" d="M108.29,21.66h1.5v7.79c0,2,.44,2.92,2.39,2.92a4.36,4.36,0,0,0,3.17-1.69v-9h1.5V33.51h-1.32l-.11-1.29a5,5,0,0,1-3.4,1.5c-2.73,0-3.73-1.31-3.73-4Z" transform="translate(-13.4 -2.5)"/><path id="Path_2487" data-name="Path 2487" class="cls-3" d="M119.48,25.77c0-2.69,1.72-4.32,4.47-4.32s4.4,1.56,4.4,3.66v.34h-1.46v-.13c0-1.48-.85-2.52-2.94-2.52-1.9,0-3,1.1-3,3.22v3.13c0,2.12,1.05,3.22,3,3.22,2.09,0,2.94-1.06,2.94-2.54V29.7h1.46V30c0,2-1.59,3.68-4.4,3.68s-4.47-1.63-4.47-4.32Z" transform="translate(-13.4 -2.5)"/><path id="Path_2488" data-name="Path 2488" class="cls-3" d="M130.81,25.77c0-2.69,1.71-4.32,4.47-4.32s4.4,1.56,4.4,3.66v.34h-1.46v-.13c0-1.48-.85-2.52-2.95-2.52-1.9,0-3,1.1-3,3.22v3.13c0,2.12,1.06,3.22,3,3.22,2.1,0,2.95-1.06,2.95-2.54V29.7h1.46V30c0,2-1.59,3.68-4.4,3.68s-4.47-1.63-4.47-4.32Z" transform="translate(-13.4 -2.5)"/><path id="Path_2489" data-name="Path 2489" class="cls-3" d="M142.26,23l-1.33-.12V21.66h2.83V33.51h-1.5ZM142,18.78c0-.78.38-1.14,1-1.14s1,.36,1,1.14a.93.93,0,0,1-.79,1.07.55.55,0,0,1-.22,0C142.39,19.86,142,19.52,142,18.78Z" transform="translate(-13.4 -2.5)"/><path id="Path_2490" data-name="Path 2490" class="cls-3" d="M146.39,25.77c0-2.69,1.71-4.32,4.46-4.32s4.47,1.63,4.47,4.32V29.4c0,2.69-1.72,4.32-4.47,4.32s-4.46-1.63-4.46-4.32Zm1.5,3.38c0,2.12,1.06,3.22,3,3.22s3-1.1,3-3.22V26c0-2.12-1.05-3.22-3-3.22s-3,1.1-3,3.22Zm3.85-11.26h1.8l-2,2.58h-1.46Z" transform="translate(-13.4 -2.5)"/><path id="Path_2491" data-name="Path 2491" class="cls-3" d="M158,21.66h1.33l.11,1.29a4.67,4.67,0,0,1,3.28-1.5c2.64,0,3.93,1.31,3.93,4v8.06h-1.5V25.72c0-2-.63-2.92-2.53-2.92a4.22,4.22,0,0,0-3.12,1.7v9H158Z" transform="translate(-13.4 -2.5)"/></g><g id="Group_1602" data-name="Group 1602"><path id="Path_2492" data-name="Path 2492" class="cls-4" d="M57.3,30.11l-1.49-.94a20.22,20.22,0,0,0-.09-8.2l1.55-1a2.32,2.32,0,0,0,.92-2.86l-.94-2.26a2.34,2.34,0,0,0-2.69-1.38l-1.86.43A20.25,20.25,0,0,0,47,8.3l.45-2A2.33,2.33,0,0,0,46,3.65l-2.25-.93a2.33,2.33,0,0,0-2.88.91L39.81,5.38l0,0a20.32,20.32,0,0,0-7.81,0l-.08-.1L30.8,3.59a2.33,2.33,0,0,0-2.87-.91l-2.24.92a2.31,2.31,0,0,0-1.38,2.67l.45,1.93a2,2,0,0,1,0,.26,19.76,19.76,0,0,0-5.43,5.43l-.3-.05-1.88-.44a2.32,2.32,0,0,0-2.68,1.38L13.57,17a2.33,2.33,0,0,0,.92,2.86l1.59,1a2.69,2.69,0,0,1,.27.2,20.41,20.41,0,0,0,0,7.75,1.44,1.44,0,0,1-.25.18l-1.53,1a2.33,2.33,0,0,0-.92,2.86l1,2.27a2.33,2.33,0,0,0,2.68,1.38L19,36.12l.25,0a20.36,20.36,0,0,0,5.59,5.7l0,.15-.4,1.74a2.33,2.33,0,0,0,1.39,2.66l2.26.94a2.32,2.32,0,0,0,2.87-.91l1-1.51,0,0a20.3,20.3,0,0,0,8.18.08l.94,1.5a2.33,2.33,0,0,0,2.87.91l2.25-.92a2.33,2.33,0,0,0,1.38-2.67L47.11,42a20,20,0,0,0,5.83-5.83l1.67.38a2.32,2.32,0,0,0,2.68-1.37L58.22,33A2.32,2.32,0,0,0,57.3,30.11Z" transform="translate(-13.4 -2.5)"/><path id="Path_2493" data-name="Path 2493" class="cls-3" d="M16.31,28.86l-.24.18-1.54,1a2.32,2.32,0,0,0-.91,2.86l.94,2.27a2.33,2.33,0,0,0,2.68,1.38L19,36.12l.25,0a20.36,20.36,0,0,0,5.59,5.7.8.8,0,0,1,0,.15l-.4,1.74a2.33,2.33,0,0,0,1.39,2.66l2.26.95a2.34,2.34,0,0,0,2.87-.91l1-1.52,0,0a20.3,20.3,0,0,0,8.18.08l.94,1.5a2.33,2.33,0,0,0,2.87.91l2.25-.92a2.32,2.32,0,0,0,1.38-2.66l-.39-1.69a20.15,20.15,0,0,0,5.83-5.84l1.67.39a2.34,2.34,0,0,0,2.68-1.38L58.23,33a2.33,2.33,0,0,0-.92-2.86l-1.5-.94A20.1,20.1,0,0,0,56.19,25H16A20.09,20.09,0,0,0,16.31,28.86Z" transform="translate(-13.4 -2.5)"/><path id="Path_2494" data-name="Path 2494" class="cls-5" d="M48.34,24.94A10.86,10.86,0,0,0,37.69,13.88a11.65,11.65,0,0,0-1.56.08H36A14,14,0,0,0,23.82,27.49,10.87,10.87,0,0,0,34.48,38.56a11.41,11.41,0,0,0,1.65-.09,13.86,13.86,0,0,0,9.41-5.35,13.25,13.25,0,0,0,2.79-8.18Z" transform="translate(-13.4 -2.5)"/><g id="Group_1601" data-name="Group 1601"><path id="Path_2495" data-name="Path 2495" class="cls-6" d="M36.13,24.94h0V12.69a12.25,12.25,0,1,0,9.41,20.14Z" transform="translate(-13.4 -2.5)"/></g><path id="Path_2496" data-name="Path 2496" class="cls-4" d="M36,24.91l9.5,7.92a12.1,12.1,0,0,0,2.79-8.11Z" transform="translate(-13.4 -2.5)"/><path id="Path_2497" data-name="Path 2497" class="cls-7" d="M36,12.69V24.94H48.34A12.27,12.27,0,0,0,36,12.69Z" transform="translate(-13.4 -2.5)"/></g><g id="Group_1603" data-name="Group 1603"><path id="Path_2498" data-name="Path 2498" class="cls-8" d="M147.63,39.85h-.25l0-.24a1,1,0,0,1-.64.28.7.7,0,0,1-.77-.63.49.49,0,0,1,0-.17v-.73a.72.72,0,0,1,.6-.8,1,1,0,0,1,.17,0,.86.86,0,0,1,.62.27v-1h.29ZM146.24,39c0,.39.13.6.5.6a.82.82,0,0,0,.6-.32V38.14a.87.87,0,0,0-.6-.33c-.37,0-.5.21-.5.6Z" transform="translate(-13.4 -2.5)"/><path id="Path_2499" data-name="Path 2499" class="cls-8" d="M148.17,38.38a.85.85,0,0,1,1.7,0v.41h-1.41V39c0,.4.2.61.56.61s.56-.23.56-.48v0h.28v.06a.75.75,0,0,1-.81.7h0a.78.78,0,0,1-.85-.69v-.82Zm1.41.15v-.1c0-.4-.2-.62-.56-.62s-.57.21-.57.62v.1Z" transform="translate(-13.4 -2.5)"/><path id="Path_2500" data-name="Path 2500" class="cls-8" d="M151.27,37h.32l.83,2.47.81-2.47h.32l-1,2.82h-.32Z" transform="translate(-13.4 -2.5)"/><path id="Path_2501" data-name="Path 2501" class="cls-8" d="M154.46,38.91,153.55,37h.33l.73,1.55.72-1.55h.33l-.9,1.87v1h-.3Z" transform="translate(-13.4 -2.5)"/><path id="Path_2502" data-name="Path 2502" class="cls-8" d="M155.9,37h1a.81.81,0,0,1,.89.7V38a.75.75,0,0,1-.59.8l.7,1h-.37l-.67-1h-.68v1h-.3Zm1,1.56a.53.53,0,0,0,.59-.61v-.06a.52.52,0,0,0-.44-.6h-.87v1.28Z" transform="translate(-13.4 -2.5)"/><path id="Path_2503" data-name="Path 2503" class="cls-8" d="M158.17,37.85a1,1,0,0,1,2,0V39a1,1,0,0,1-1.09.89,1,1,0,0,1-.9-.89Zm.3,1.12a.7.7,0,0,0,1.39,0V37.91a.7.7,0,0,0-.73-.66.71.71,0,0,0-.66.66Z" transform="translate(-13.4 -2.5)"/><path id="Path_2504" data-name="Path 2504" class="cls-8" d="M160.63,37h1c.55,0,.85.23.85.71v.16a.59.59,0,0,1-.28.55.61.61,0,0,1,.35.58v.14c0,.39-.26.68-.81.68h-1.1Zm1.1,1.31c.27,0,.44-.15.44-.49V37.8c0-.36-.17-.49-.54-.49h-.7v1Zm0,1.23c.36,0,.52-.18.52-.45v0a.44.44,0,0,0-.39-.47h-.92v1Z" transform="translate(-13.4 -2.5)"/><path id="Path_2505" data-name="Path 2505" class="cls-8" d="M163.72,37H164l1,2.82h-.32l-.3-.86h-1.11l-.3.86h-.32Zm.61,1.68-.47-1.33-.44,1.33Z" transform="translate(-13.4 -2.5)"/><path id="Path_2506" data-name="Path 2506" class="cls-8" d="M165.18,37.35c0-.32.33-.5.7-.5s.7.19.7.5V38c0,.32-.33.5-.7.5s-.7-.18-.7-.5Zm.15.67c0,.26.27.38.55.38s.55-.12.55-.38v-.65c0-.26-.27-.39-.55-.39s-.55.13-.55.39Zm.21-.81h.37c.2,0,.33.1.33.28v.06a.27.27,0,0,1-.19.27l.24.36h-.17l-.23-.35h-.21v.35h-.14Zm.37.5c.13,0,.2-.05.2-.18v0c0-.13-.07-.17-.2-.17h-.23v.37Z" transform="translate(-13.4 -2.5)"/></g></g></svg>