<svg id="Layer_1" data-name="Layer 1" xmlns="http://www.w3.org/2000/svg" viewBox="0 0 125.88 44.98"><defs><style>.cls-1{fill:#004cac;}.cls-2{fill:#00b5f1;}.cls-3{fill:#003062;}.cls-4{fill:#002d5e;}.cls-5{fill:#fff;}.cls-6{fill:#00639e;}.cls-7{fill:#00538d;}.cls-8{fill:#008ad8;}</style></defs><g id="Group_1565" data-name="Group 1565"><g id="Group_1562" data-name="Group 1562"><path id="Path_2123" data-name="Path 2123" class="cls-1" d="M150,11.35a2.32,2.32,0,0,1-3.27,0,2.27,2.27,0,0,1-.66-1.63A2.18,2.18,0,0,1,146.81,8a2.26,2.26,0,0,1,1.58-.63,2.32,2.32,0,0,1,2.31,2.32,2.27,2.27,0,0,1-.69,1.66m-3-3a1.93,1.93,0,0,0-.55,1.34,1.85,1.85,0,0,0,.56,1.37,1.91,1.91,0,0,0,2.7,0h0a1.9,1.9,0,0,0,.57-1.37,1.94,1.94,0,0,0-.56-1.34,1.9,1.9,0,0,0-2.71,0m.35,2.63V8.4h1.23a1.27,1.27,0,0,1,.51.12.64.64,0,0,1,.34.62.55.55,0,0,1-.18.47.9.9,0,0,1-.44.18.67.67,0,0,1,.36.14.69.69,0,0,1,.23.57v.23a.22.22,0,0,0,0,.08.25.25,0,0,0,0,.08l0,.06h-.64a2,2,0,0,1,0-.35,1.63,1.63,0,0,0,0-.31.35.35,0,0,0-.19-.19.51.51,0,0,0-.24,0h-.28V11Zm1.22-2.05a1.06,1.06,0,0,0-.39-.06h-.17v.75h.26a.69.69,0,0,0,.37-.1.34.34,0,0,0,.14-.3.27.27,0,0,0-.21-.29" transform="translate(-30.06 -2.51)"/><path id="Path_2124" data-name="Path 2124" class="cls-1" d="M100.73,13A4.3,4.3,0,0,1,99,12.67a3.07,3.07,0,0,1-1.36-1.11,3.37,3.37,0,0,1-.53-2,5,5,0,0,1,.34-1.86,3.87,3.87,0,0,1,.94-1.36,4.17,4.17,0,0,1,1.35-.83,4.65,4.65,0,0,1,1.61-.27,3.86,3.86,0,0,1,1.8.41,3,3,0,0,1,1.25,1.2,3.59,3.59,0,0,1,.45,1.82,4.77,4.77,0,0,1-.29,1.71,3.9,3.9,0,0,1-2.15,2.28,4.55,4.55,0,0,1-1.71.32m.56-6.21a2.1,2.1,0,0,0-1.28.41,2.61,2.61,0,0,0-.82,1,3.16,3.16,0,0,0-.28,1.25,2.1,2.1,0,0,0,.49,1.4,1.71,1.71,0,0,0,1.36.58,2.19,2.19,0,0,0,1-.22,2.29,2.29,0,0,0,.75-.6,2.69,2.69,0,0,0,.46-.85,3,3,0,0,0,.16-1,2.31,2.31,0,0,0-.23-1.06,1.7,1.7,0,0,0-1.58-1" transform="translate(-30.06 -2.51)"/><path id="Path_2125" data-name="Path 2125" class="cls-1" d="M115.41,12.94l.91-6.11h-2.5l.12-.79h0V6a.73.73,0,0,1,.73-.65h6.09l-.12.84v0a.74.74,0,0,1-.73.61H118l-.9,6.12Z" transform="translate(-30.06 -2.51)"/><path id="Path_2126" data-name="Path 2126" class="cls-1" d="M126,6a2.76,2.76,0,0,0-2-.64h-2.43l-1.12,7.59h.94a.88.88,0,0,0,.87-.76h0l.3-2h1.38a3,3,0,0,0,1.52-.35,2.09,2.09,0,0,0,.87-.92,2.87,2.87,0,0,0,.28-1.26A2.29,2.29,0,0,0,126,6M124.78,7.7a1.46,1.46,0,0,1-1.26,1.38h-.83l.39-2.59a2.36,2.36,0,0,1,.7,0c.46,0,1.1.18,1,1.25" transform="translate(-30.06 -2.51)"/><path id="Path_2127" data-name="Path 2127" class="cls-1" d="M111.59,5.35l-.72,4.9-2.16-3.48a2.75,2.75,0,0,0-2.43-1.42h-.1l-1.12,7.59h1.71L107.49,8l2.16,3.49a2.8,2.8,0,0,0,2.44,1.42h.1l1.12-7.59Zm-.71,4.91Z" transform="translate(-30.06 -2.51)"/><path id="Path_2128" data-name="Path 2128" class="cls-1" d="M130.77,5.36h-.58a2.12,2.12,0,0,0-1.85,1.09l-.06.1,0,0L125,13h1.79l.84-1.75h2.48l.2,1.74h1.85Zm-2.62,4.78,1.46-3,.41,3Z" transform="translate(-30.06 -2.51)"/><path id="Path_2129" data-name="Path 2129" class="cls-1" d="M139.8,11.32l-.23-.23a4.07,4.07,0,0,0,.31-.67,5,5,0,0,0,.29-1.71,3.59,3.59,0,0,0-.45-1.82,3,3,0,0,0-1.25-1.19,3.75,3.75,0,0,0-1.8-.42,4.66,4.66,0,0,0-1.61.28,4,4,0,0,0-1.35.82,3.82,3.82,0,0,0-.94,1.37,4.91,4.91,0,0,0-.34,1.86,3.29,3.29,0,0,0,.54,2,3,3,0,0,0,1.36,1.11A4.26,4.26,0,0,0,136,13a4.37,4.37,0,0,0,1.71-.32,3.93,3.93,0,0,0,.5-.26l.23.23a1,1,0,0,0,.67.28h1V12h0a1,1,0,0,0-.27-.68m-3.76.17a1.68,1.68,0,0,1-1.35-.58,2.11,2.11,0,0,1-.5-1.4,3.16,3.16,0,0,1,.28-1.25,2.61,2.61,0,0,1,.82-1,2.08,2.08,0,0,1,1.28-.41,1.7,1.7,0,0,1,1.58,1,2.28,2.28,0,0,1,.23,1.06,2.9,2.9,0,0,1-.16,1,2.86,2.86,0,0,1-.46.86,2.43,2.43,0,0,1-.75.6,2.18,2.18,0,0,1-1,.21" transform="translate(-30.06 -2.51)"/><path id="Path_2130" data-name="Path 2130" class="cls-1" d="M96.5,7.07S94,6.3,92.84,7.46s-1.22,3,.09,3.72,3.41-.22,3.56-.45a2.2,2.2,0,0,1-.17,1.43c-.35.74-2.38,1.16-4,.59a3.2,3.2,0,0,1-2.17-3.61A4.1,4.1,0,0,1,93.4,5.43a8.4,8.4,0,0,1,3.86.18Z" transform="translate(-30.06 -2.51)"/><path id="Path_2131" data-name="Path 2131" class="cls-1" d="M144.91,7.37h-1.3a1,1,0,0,0-1,.8l-.71,4.77h0a3.51,3.51,0,0,0,1.38-1.18,6.72,6.72,0,0,0,1.3-2.28Z" transform="translate(-30.06 -2.51)"/><path id="Path_2132" data-name="Path 2132" class="cls-1" d="M144.08,6.69A1.08,1.08,0,1,0,143,5.61h0a1.08,1.08,0,0,0,1.08,1.08h0" transform="translate(-30.06 -2.51)"/><path id="Path_2133" data-name="Path 2133" class="cls-2" d="M143.3,11.76a3.43,3.43,0,0,1-1.38,1.18h1.3a1,1,0,0,0,1-.79l.39-2.67a6.72,6.72,0,0,1-1.3,2.28" transform="translate(-30.06 -2.51)"/></g><g id="Group_1563" data-name="Group 1563"><path id="Path_2134" data-name="Path 2134" class="cls-2" d="M90.1,18.65h5.19c2.89,0,4.45,1.2,4.45,3.69v.87a3.09,3.09,0,0,1-1.47,2.85,3.22,3.22,0,0,1,1.83,3v.78c0,2-1.35,3.54-4.24,3.54H90.1Zm5.74,6.84c1.41,0,2.32-.76,2.32-2.56v-.27c0-1.9-.89-2.54-2.83-2.54H91.68v5.37Zm0,6.48c1.9,0,2.7-1,2.7-2.37v-.23a2.27,2.27,0,0,0-2-2.47,2,2,0,0,0-.42,0H91.68V32Z" transform="translate(-30.06 -2.51)"/><path id="Path_2135" data-name="Path 2135" class="cls-2" d="M102.09,25.59c0-2.68,1.37-4.2,4-4.2a5,5,0,0,1,3.36,1.5l.1-1.29h1.33V33.43h-1.33l-.1-1.29a4.87,4.87,0,0,1-3.36,1.5c-2.64,0-4-1.52-4-4.2Zm1.5,3.57c0,2,.72,3.12,2.62,3.12a4.42,4.42,0,0,0,3.19-1.68V24.44a4.47,4.47,0,0,0-3.19-1.69c-1.9,0-2.62,1.1-2.62,3.12Z" transform="translate(-30.06 -2.51)"/><path id="Path_2136" data-name="Path 2136" class="cls-2" d="M113.64,21.61H115l.11,1.28a4.63,4.63,0,0,1,3.27-1.5c2.64,0,3.92,1.31,3.92,4v8.05h-1.5V25.66c0-2-.63-2.91-2.53-2.91a4.21,4.21,0,0,0-3.1,1.69v9h-1.5Z" transform="translate(-30.06 -2.51)"/><path id="Path_2137" data-name="Path 2137" class="cls-2" d="M124.85,25.7c0-2.68,1.71-4.31,4.46-4.31s4.39,1.57,4.39,3.66v.34h-1.46v-.13c0-1.48-.84-2.51-2.93-2.51-1.9,0-3,1.1-3,3.21v3.12c0,2.11,1.06,3.21,3,3.21,2.09,0,2.93-1.06,2.93-2.53v-.13h1.46V30c0,2-1.58,3.67-4.39,3.67s-4.46-1.62-4.46-4.31Z" transform="translate(-30.06 -2.51)"/><path id="Path_2138" data-name="Path 2138" class="cls-2" d="M136.15,25.7c0-2.68,1.71-4.31,4.45-4.31s4.46,1.63,4.46,4.31v3.63c0,2.68-1.71,4.31-4.46,4.31s-4.45-1.63-4.45-4.31Zm1.5,3.38c0,2.11,1.06,3.21,3,3.21s2.95-1.1,2.95-3.21V26c0-2.11-1.05-3.2-2.95-3.2s-3,1.1-3,3.2Z" transform="translate(-30.06 -2.51)"/><path id="Path_2139" data-name="Path 2139" class="cls-2" d="M147.17,29.73h1.5v.13c0,1.27.93,2.51,3,2.51,1.9,0,2.75-1,2.75-2.13v-.15c0-1.28-1.08-1.69-2.81-1.88-2.11-.23-4.2-.88-4.2-3.2v-.36c0-1.88,1.33-3.34,4.07-3.34s4.16,1.77,4.16,3.65v.34H154.2v-.13c0-1.26-.61-2.51-2.7-2.51-1.83,0-2.57.87-2.57,2v.15c0,1.41,1.22,1.81,2.91,2,1.94.21,4.1.72,4.1,3.06v.43c0,1.85-1.5,3.4-4.24,3.4s-4.52-1.63-4.52-3.66Z" transform="translate(-30.06 -2.51)"/></g><g id="Group_1564" data-name="Group 1564"><circle id="Ellipse_132" data-name="Ellipse 132" class="cls-1" cx="25.97" cy="22.49" r="16.37"/><path id="Path_2140" data-name="Path 2140" class="cls-3" d="M43.73,35.8l-.29-.33Z" transform="translate(-30.06 -2.51)"/><path id="Path_2141" data-name="Path 2141" class="cls-3" d="M44.27,36.38,43.94,36Z" transform="translate(-30.06 -2.51)"/><path id="Path_2142" data-name="Path 2142" class="cls-3" d="M66.31,37.73l0,0Z" transform="translate(-30.06 -2.51)"/><path id="Path_2143" data-name="Path 2143" class="cls-3" d="M46.82,38.53l-.37-.26Z" transform="translate(-30.06 -2.51)"/><path id="Path_2144" data-name="Path 2144" class="cls-3" d="M46.19,38.08l-.39-.3Z" transform="translate(-30.06 -2.51)"/><path id="Path_2145" data-name="Path 2145" class="cls-3" d="M43.23,35.2,43,34.87Z" transform="translate(-30.06 -2.51)"/><path id="Path_2146" data-name="Path 2146" class="cls-3" d="M44.93,37c-.16-.14-.31-.29-.46-.44Z" transform="translate(-30.06 -2.51)"/><path id="Path_2147" data-name="Path 2147" class="cls-3" d="M45.59,37.61l-.57-.5Z" transform="translate(-30.06 -2.51)"/><path id="Path_2148" data-name="Path 2148" class="cls-3" d="M40.36,29.77l-.11-.41C40.29,29.5,40.33,29.63,40.36,29.77Z" transform="translate(-30.06 -2.51)"/><path id="Path_2149" data-name="Path 2149" class="cls-3" d="M41.2,31.94c-.06-.12-.11-.25-.17-.37C41.09,31.69,41.14,31.82,41.2,31.94Z" transform="translate(-30.06 -2.51)"/><path id="Path_2150" data-name="Path 2150" class="cls-3" d="M42.76,34.59l-.24-.34Z" transform="translate(-30.06 -2.51)"/><path id="Path_2151" data-name="Path 2151" class="cls-3" d="M47.46,38.94c-.13-.07-.25-.15-.37-.23C47.21,38.79,47.33,38.87,47.46,38.94Z" transform="translate(-30.06 -2.51)"/><path id="Path_2152" data-name="Path 2152" class="cls-3" d="M67.35,36.81l-.07.07Z" transform="translate(-30.06 -2.51)"/><path id="Path_2153" data-name="Path 2153" class="cls-3" d="M40.89,31.23l-.15-.38Z" transform="translate(-30.06 -2.51)"/><path id="Path_2154" data-name="Path 2154" class="cls-3" d="M42.32,34l-.21-.34Z" transform="translate(-30.06 -2.51)"/><path id="Path_2155" data-name="Path 2155" class="cls-3" d="M41.92,33.3l-.2-.35C41.78,33.07,41.85,33.18,41.92,33.3Z" transform="translate(-30.06 -2.51)"/><path id="Path_2156" data-name="Path 2156" class="cls-3" d="M41.54,32.63l-.18-.36Z" transform="translate(-30.06 -2.51)"/><path id="Path_2157" data-name="Path 2157" class="cls-3" d="M40.61,30.51c0-.13-.09-.26-.13-.4C40.52,30.25,40.56,30.38,40.61,30.51Z" transform="translate(-30.06 -2.51)"/><path id="Path_2158" data-name="Path 2158" class="cls-3" d="M62.91,39.85l-.17.07Z" transform="translate(-30.06 -2.51)"/><path id="Path_2159" data-name="Path 2159" class="cls-3" d="M56,41.37Z" transform="translate(-30.06 -2.51)"/><path id="Path_2160" data-name="Path 2160" class="cls-3" d="M56,41.37l-.81,0Z" transform="translate(-30.06 -2.51)"/><path id="Path_2161" data-name="Path 2161" class="cls-3" d="M54.08,41.25l-.48-.06Z" transform="translate(-30.06 -2.51)"/><path id="Path_2162" data-name="Path 2162" class="cls-3" d="M61.59,40.39l-.08,0Z" transform="translate(-30.06 -2.51)"/><path id="Path_2163" data-name="Path 2163" class="cls-3" d="M60.34,40.79l-.13,0Z" transform="translate(-30.06 -2.51)"/><path id="Path_2164" data-name="Path 2164" class="cls-3" d="M57.54,41.3h0Z" transform="translate(-30.06 -2.51)"/><path id="Path_2165" data-name="Path 2165" class="cls-3" d="M59,41.09l-.23,0Z" transform="translate(-30.06 -2.51)"/><path id="Path_2166" data-name="Path 2166" class="cls-3" d="M64.13,39.22l-.13.07Z" transform="translate(-30.06 -2.51)"/><path id="Path_2167" data-name="Path 2167" class="cls-3" d="M53.27,41.13l-.45-.08Z" transform="translate(-30.06 -2.51)"/><path id="Path_2168" data-name="Path 2168" class="cls-3" d="M49.5,40l-.38-.17Z" transform="translate(-30.06 -2.51)"/><path id="Path_2169" data-name="Path 2169" class="cls-3" d="M48.12,39.33l-.37-.21Z" transform="translate(-30.06 -2.51)"/><path id="Path_2170" data-name="Path 2170" class="cls-3" d="M50.22,40.3l-.39-.15Z" transform="translate(-30.06 -2.51)"/><path id="Path_2171" data-name="Path 2171" class="cls-3" d="M48.8,39.69l-.38-.2Z" transform="translate(-30.06 -2.51)"/><path id="Path_2172" data-name="Path 2172" class="cls-3" d="M52.48,41l-.43-.1Z" transform="translate(-30.06 -2.51)"/><path id="Path_2173" data-name="Path 2173" class="cls-3" d="M51,40.56l-.41-.13Z" transform="translate(-30.06 -2.51)"/><path id="Path_2174" data-name="Path 2174" class="cls-3" d="M51.71,40.79l-.41-.12Z" transform="translate(-30.06 -2.51)"/><path id="Path_2175" data-name="Path 2175" class="cls-3" d="M54.94,41.33l-.54,0Z" transform="translate(-30.06 -2.51)"/><path id="Path_2176" data-name="Path 2176" class="cls-3" d="M72.31,23.31c0-.26-.06-.52-.1-.77C72.25,22.79,72.28,23.05,72.31,23.31Z" transform="translate(-30.06 -2.51)"/><path id="Path_2177" data-name="Path 2177" class="cls-3" d="M72,28.65Z" transform="translate(-30.06 -2.51)"/><path id="Path_2178" data-name="Path 2178" class="cls-3" d="M69.88,33.71Z" transform="translate(-30.06 -2.51)"/><path id="Path_2179" data-name="Path 2179" class="cls-3" d="M40,28.24l-.09-.47C39.92,27.93,39.94,28.09,40,28.24Z" transform="translate(-30.06 -2.51)"/><path id="Path_2180" data-name="Path 2180" class="cls-3" d="M40.15,29c0-.14-.06-.28-.1-.42C40.09,28.73,40.12,28.87,40.15,29Z" transform="translate(-30.06 -2.51)"/><path id="Path_2181" data-name="Path 2181" class="cls-3" d="M57.11,8.66l.54,0Z" transform="translate(-30.06 -2.51)"/><path id="Path_2182" data-name="Path 2182" class="cls-3" d="M58.78,8.86l.45.08Z" transform="translate(-30.06 -2.51)"/><path id="Path_2183" data-name="Path 2183" class="cls-3" d="M39.74,26.68h0c0,.26.06.52.1.77C39.8,27.19,39.77,26.94,39.74,26.68Z" transform="translate(-30.06 -2.51)"/><path id="Path_2184" data-name="Path 2184" class="cls-3" d="M63.25,10.3l.38.2Z" transform="translate(-30.06 -2.51)"/><path id="Path_2185" data-name="Path 2185" class="cls-3" d="M64.59,11.05c.13.07.25.15.37.23C64.84,11.2,64.72,11.12,64.59,11.05Z" transform="translate(-30.06 -2.51)"/><path id="Path_2186" data-name="Path 2186" class="cls-3" d="M58,8.74l.48.06Z" transform="translate(-30.06 -2.51)"/><path id="Path_2187" data-name="Path 2187" class="cls-3" d="M72.16,22.2l-.09-.46Z" transform="translate(-30.06 -2.51)"/><path id="Path_2188" data-name="Path 2188" class="cls-3" d="M67.13,13l.45.43C67.43,13.25,67.29,13.11,67.13,13Z" transform="translate(-30.06 -2.51)"/><path id="Path_2189" data-name="Path 2189" class="cls-3" d="M59.57,9l.43.1Z" transform="translate(-30.06 -2.51)"/><path id="Path_2190" data-name="Path 2190" class="cls-3" d="M70.51,17.36l.18.36Z" transform="translate(-30.06 -2.51)"/><path id="Path_2191" data-name="Path 2191" class="cls-3" d="M66.46,12.38l.57.49Z" transform="translate(-30.06 -2.51)"/><path id="Path_2192" data-name="Path 2192" class="cls-3" d="M40.07,21.34" transform="translate(-30.06 -2.51)"/><path id="Path_2193" data-name="Path 2193" class="cls-3" d="M61.83,9.68l.39.16Z" transform="translate(-30.06 -2.51)"/><path id="Path_2194" data-name="Path 2194" class="cls-3" d="M71.44,19.48c0,.13.09.26.13.39C71.53,19.74,71.49,19.61,71.44,19.48Z" transform="translate(-30.06 -2.51)"/><path id="Path_2195" data-name="Path 2195" class="cls-3" d="M70.85,18.05c.06.12.11.25.17.37C71,18.3,70.91,18.17,70.85,18.05Z" transform="translate(-30.06 -2.51)"/><path id="Path_2196" data-name="Path 2196" class="cls-3" d="M65.24,11.46l.36.26Z" transform="translate(-30.06 -2.51)"/><path id="Path_2197" data-name="Path 2197" class="cls-3" d="M62.55,10l.38.17Z" transform="translate(-30.06 -2.51)"/><path id="Path_2198" data-name="Path 2198" class="cls-3" d="M60.34,9.2l.42.12Z" transform="translate(-30.06 -2.51)"/><path id="Path_2199" data-name="Path 2199" class="cls-3" d="M65.86,11.9l.38.3Z" transform="translate(-30.06 -2.51)"/><path id="Path_2200" data-name="Path 2200" class="cls-3" d="M71.16,18.76c.06.12.1.25.15.37C71.26,19,71.22,18.88,71.16,18.76Z" transform="translate(-30.06 -2.51)"/><path id="Path_2201" data-name="Path 2201" class="cls-3" d="M45.74,12.26l0,0Z" transform="translate(-30.06 -2.51)"/><path id="Path_2202" data-name="Path 2202" class="cls-3" d="M61.09,9.43l.4.13Z" transform="translate(-30.06 -2.51)"/><path id="Path_2203" data-name="Path 2203" class="cls-3" d="M71.9,21c0,.14.07.28.1.42C72,21.26,71.93,21.12,71.9,21Z" transform="translate(-30.06 -2.51)"/><path id="Path_2204" data-name="Path 2204" class="cls-3" d="M70.13,16.69c.07.12.14.23.2.35C70.27,16.92,70.2,16.81,70.13,16.69Z" transform="translate(-30.06 -2.51)"/><path id="Path_2205" data-name="Path 2205" class="cls-3" d="M53.05,8.9l.23,0Z" transform="translate(-30.06 -2.51)"/><path id="Path_2206" data-name="Path 2206" class="cls-3" d="M71.69,20.22c0,.14.08.27.11.41C71.77,20.49,71.73,20.36,71.69,20.22Z" transform="translate(-30.06 -2.51)"/><path id="Path_2207" data-name="Path 2207" class="cls-3" d="M63.93,10.66l.37.21C64.18,10.79,64.06,10.73,63.93,10.66Z" transform="translate(-30.06 -2.51)"/><path id="Path_2208" data-name="Path 2208" class="cls-3" d="M68.82,14.79l.26.33Z" transform="translate(-30.06 -2.51)"/><path id="Path_2209" data-name="Path 2209" class="cls-3" d="M47.92,10.77l.13-.07Z" transform="translate(-30.06 -2.51)"/><path id="Path_2210" data-name="Path 2210" class="cls-3" d="M50.46,9.59l.08,0Z" transform="translate(-30.06 -2.51)"/><path id="Path_2211" data-name="Path 2211" class="cls-3" d="M69.29,15.4l.24.34Z" transform="translate(-30.06 -2.51)"/><path id="Path_2212" data-name="Path 2212" class="cls-3" d="M51.72,9.2l.13,0Z" transform="translate(-30.06 -2.51)"/><path id="Path_2213" data-name="Path 2213" class="cls-3" d="M67.78,13.61l.33.34Z" transform="translate(-30.06 -2.51)"/><path id="Path_2214" data-name="Path 2214" class="cls-3" d="M56,8.62h0l.81,0Z" transform="translate(-30.06 -2.51)"/><path id="Path_2215" data-name="Path 2215" class="cls-3" d="M42.17,16.28Z" transform="translate(-30.06 -2.51)"/><path id="Path_2216" data-name="Path 2216" class="cls-3" d="M68.33,14.2l.28.32Z" transform="translate(-30.06 -2.51)"/><path id="Path_2217" data-name="Path 2217" class="cls-3" d="M54.51,8.7l.2,0Z" transform="translate(-30.06 -2.51)"/><path id="Path_2218" data-name="Path 2218" class="cls-3" d="M49.14,10.14l.17-.07Z" transform="translate(-30.06 -2.51)"/><path id="Path_2219" data-name="Path 2219" class="cls-3" d="M44.7,13.18l.07-.07Z" transform="translate(-30.06 -2.51)"/><path id="Path_2220" data-name="Path 2220" class="cls-3" d="M69.73,16l.22.34Z" transform="translate(-30.06 -2.51)"/><path id="Path_2221" data-name="Path 2221" class="cls-4" d="M56,9.6c8.08,0,14.8,5,16.12,12.6h0c0-.15-.05-.3-.08-.45s0-.23-.07-.34-.07-.29-.1-.43-.07-.24-.1-.35l-.12-.41c0-.11-.07-.23-.11-.35l-.13-.39c0-.13-.09-.23-.14-.34s-.1-.26-.14-.38L71,18.42c-.05-.11-.11-.25-.17-.37a3.36,3.36,0,0,0-.16-.33l-.18-.36L70.33,17c-.06-.11-.14-.23-.2-.35l-.19-.31L69.72,16l-.2-.3-.24-.33-.21-.29-.25-.33-.22-.27-.28-.32c-.08-.08-.15-.17-.22-.25l-.32-.34-.2-.21L67.13,13l-.1-.1-.58-.49-.21-.17-.38-.3a2.48,2.48,0,0,1-.26-.19l-.37-.26L65,11.28l-.37-.23-.29-.18-.37-.21-.3-.16-.38-.2-.32-.15L62.55,10l-.33-.14-.39-.15-.33-.13-.4-.13-.34-.11-.42-.12L60,9.11,59.57,9l-.33-.07-.46-.08-.33-.06L58,8.74l-.31,0-.54,0-.27,0-.82,0c-.44,0-.88,0-1.31.06l-.21,0c-.41,0-.82.09-1.22.16l-.23,0c-.41.07-.81.16-1.21.26l-.13,0c-.4.11-.79.23-1.17.37l-.08,0c-.39.15-.78.3-1.16.48l-.16.07c-.37.17-.74.36-1.09.56l-.13.07a16.48,16.48,0,0,0-2.14,1.46l0,0c-.33.27-.66.55-1,.85l-.07.07a16.48,16.48,0,0,0-2.53,3.1h0a16.24,16.24,0,0,0-2.1,5h.27A16.38,16.38,0,0,1,56,9.6Z" transform="translate(-30.06 -2.51)"/><path id="Path_2222" data-name="Path 2222" class="cls-4" d="M56.11,40.39c-8.08,0-14.8-5-16.13-12.6h0l.09.45c0,.12,0,.23.07.34s.07.29.1.43.07.23.1.35l.12.41c0,.11.07.23.11.34l.13.39.13.35.15.38.15.34c0,.11.11.25.16.37l.16.33c.06.11.12.24.19.35l.17.33.2.35c.07.11.13.2.19.31s.14.23.22.34l.2.3.23.33.21.29.26.32a2.88,2.88,0,0,0,.22.27l.28.33c.07.08.14.17.22.25l.32.34.2.21L45,37a.47.47,0,0,1,.1.1l.57.49.21.17.39.3.26.19.36.25.28.19.36.23.3.17.37.22.3.16.38.19.31.15.39.18.32.13.4.16.33.12.4.14.33.11.42.12.34.09.43.1.34.07.45.08.34,0,.47.07.32,0,.54,0,.27,0c.27,0,.54,0,.82,0,.44,0,.88,0,1.31-.06l.21,0c.41,0,.82-.09,1.22-.16l.23,0c.41-.07.81-.16,1.21-.27l.13,0c.4-.11.79-.23,1.17-.37l.08,0c.39-.14.78-.3,1.16-.47l.16-.07c.37-.18.74-.36,1.09-.56l.13-.07a17.19,17.19,0,0,0,2.14-1.46l0,0c.34-.27.66-.56,1-.85l.07-.07A16.34,16.34,0,0,0,70,33.71h0a16.24,16.24,0,0,0,2.1-5.05h-.27A16.37,16.37,0,0,1,56.11,40.39Z" transform="translate(-30.06 -2.51)"/><path id="Path_2223" data-name="Path 2223" class="cls-3" d="M72.16,22.22v0h0Z" transform="translate(-30.06 -2.51)"/><path id="Path_2224" data-name="Path 2224" class="cls-3" d="M72.31,23.31h0c0-.27-.06-.53-.1-.79v0C72.25,22.79,72.28,23.05,72.31,23.31Z" transform="translate(-30.06 -2.51)"/><path id="Path_2225" data-name="Path 2225" class="cls-3" d="M39.84,27.45c0-.25-.07-.51-.1-.77,0,.26.06.52.1.78Z" transform="translate(-30.06 -2.51)"/><path id="Path_2226" data-name="Path 2226" class="cls-3" d="M72.31,23.31Z" transform="translate(-30.06 -2.51)"/><path id="Path_2227" data-name="Path 2227" class="cls-3" d="M72.21,22.53c0-.1,0-.2,0-.31v0h0l.06.34Z" transform="translate(-30.06 -2.51)"/><path id="Path_2228" data-name="Path 2228" class="cls-3" d="M39.85,27.55s0-.07,0-.1h0s0,.05,0,.08Z" transform="translate(-30.06 -2.51)"/><path id="Path_2229" data-name="Path 2229" class="cls-5" d="M54.92,31.3v1.64c0,.35.15.5.48.5h1.46c.32,0,.45-.15.45-.5V31.28c2.4-.33,3.42-1.57,3.42-2.91V27c0-1.17-.87-2-2.23-2.43l-3.73-1.29c-.44-.15-1-.5-1-1.15v-.42c0-.89.8-1.31,2.31-1.31s2.36.42,2.36,1.31v.6c0,.33.12.45.42.45h1.29c.35,0,.45-.12.45-.45v-.6c0-1.31-.87-2.63-3.25-3V17.05c0-.35-.13-.5-.45-.5H55.39c-.32,0-.47.15-.47.5v1.66c-2.48.3-3.35,1.64-3.35,3v.92a2.83,2.83,0,0,0,1.94,2.51l3.72,1.29c.82.27,1.32.6,1.32,1.19v.67c0,.9-1,1.32-2.54,1.32s-2.53-.42-2.53-1.32v-.52c0-.3-.1-.45-.42-.45H51.74c-.3,0-.42.15-.42.45v.62C51.32,29.74,52.34,31,54.92,31.3Z" transform="translate(-30.06 -2.51)"/><path id="Path_2230" data-name="Path 2230" class="cls-6" d="M78.5,23.82q0-.69-.12-1.38h0Q78.46,23.13,78.5,23.82Z" transform="translate(-30.06 -2.51)"/><path id="Path_2231" data-name="Path 2231" class="cls-6" d="M71.58,19.87c0,.12.07.23.11.35C71.65,20.1,71.61,20,71.58,19.87Z" transform="translate(-30.06 -2.51)"/><path id="Path_2232" data-name="Path 2232" class="cls-6" d="M71.81,20.63c0,.11.06.23.1.35C71.87,20.86,71.84,20.74,71.81,20.63Z" transform="translate(-30.06 -2.51)"/><path id="Path_2233" data-name="Path 2233" class="cls-6" d="M67,12.87l.1.1Z" transform="translate(-30.06 -2.51)"/><path id="Path_2234" data-name="Path 2234" class="cls-6" d="M67.58,13.4l.2.21Z" transform="translate(-30.06 -2.51)"/><path id="Path_2235" data-name="Path 2235" class="cls-6" d="M68.61,14.52l.21.27Z" transform="translate(-30.06 -2.51)"/><path id="Path_2236" data-name="Path 2236" class="cls-6" d="M68.11,14c.07.08.14.17.22.25Z" transform="translate(-30.06 -2.51)"/><path id="Path_2237" data-name="Path 2237" class="cls-6" d="M66.24,12.21a1.84,1.84,0,0,1,.22.17Z" transform="translate(-30.06 -2.51)"/><path id="Path_2238" data-name="Path 2238" class="cls-6" d="M65.6,11.72l.26.19Z" transform="translate(-30.06 -2.51)"/><path id="Path_2239" data-name="Path 2239" class="cls-6" d="M69.53,15.74l.2.3Z" transform="translate(-30.06 -2.51)"/><path id="Path_2240" data-name="Path 2240" class="cls-6" d="M69.08,15.12l.21.28Z" transform="translate(-30.06 -2.51)"/><path id="Path_2241" data-name="Path 2241" class="cls-6" d="M65,11.28l.28.18Z" transform="translate(-30.06 -2.51)"/><path id="Path_2242" data-name="Path 2242" class="cls-6" d="M70.33,17l.18.32Z" transform="translate(-30.06 -2.51)"/><path id="Path_2243" data-name="Path 2243" class="cls-6" d="M70.69,17.72c.06.11.11.22.16.33C70.8,17.94,70.75,17.83,70.69,17.72Z" transform="translate(-30.06 -2.51)"/><path id="Path_2244" data-name="Path 2244" class="cls-6" d="M71.31,19.13c0,.12.09.24.13.35C71.4,19.37,71.36,19.25,71.31,19.13Z" transform="translate(-30.06 -2.51)"/><path id="Path_2245" data-name="Path 2245" class="cls-6" d="M70,16.38l.18.31Z" transform="translate(-30.06 -2.51)"/><path id="Path_2246" data-name="Path 2246" class="cls-6" d="M71,18.42a3.45,3.45,0,0,1,.14.34A3.45,3.45,0,0,0,71,18.42Z" transform="translate(-30.06 -2.51)"/><path id="Path_2247" data-name="Path 2247" class="cls-6" d="M72,21.4c0,.12,0,.23.07.34C72.05,21.63,72,21.52,72,21.4Z" transform="translate(-30.06 -2.51)"/><path id="Path_2248" data-name="Path 2248" class="cls-6" d="M56,8.62c-.45,0-.88,0-1.32.06C55.15,8.65,55.58,8.62,56,8.62Z" transform="translate(-30.06 -2.51)"/><path id="Path_2249" data-name="Path 2249" class="cls-6" d="M48.05,10.7c.36-.2.72-.39,1.09-.56C48.77,10.31,48.41,10.5,48.05,10.7Z" transform="translate(-30.06 -2.51)"/><path id="Path_2250" data-name="Path 2250" class="cls-6" d="M53.28,8.86c.4-.07.81-.12,1.23-.16A9.84,9.84,0,0,0,53.28,8.86Z" transform="translate(-30.06 -2.51)"/><path id="Path_2251" data-name="Path 2251" class="cls-6" d="M51.85,9.17l1.2-.27A12.24,12.24,0,0,0,51.85,9.17Z" transform="translate(-30.06 -2.51)"/><path id="Path_2252" data-name="Path 2252" class="cls-6" d="M50.54,9.57c.39-.14.78-.26,1.18-.37C51.32,9.31,50.93,9.43,50.54,9.57Z" transform="translate(-30.06 -2.51)"/><path id="Path_2253" data-name="Path 2253" class="cls-6" d="M45.78,12.23a17.19,17.19,0,0,1,2.14-1.46A17.19,17.19,0,0,0,45.78,12.23Z" transform="translate(-30.06 -2.51)"/><path id="Path_2254" data-name="Path 2254" class="cls-6" d="M40.07,21.34a16.19,16.19,0,0,1,2.1-5.06A16.19,16.19,0,0,0,40.07,21.34Z" transform="translate(-30.06 -2.51)"/><path id="Path_2255" data-name="Path 2255" class="cls-6" d="M44.77,13.11c.31-.29.63-.58,1-.85C45.4,12.53,45.08,12.82,44.77,13.11Z" transform="translate(-30.06 -2.51)"/><path id="Path_2256" data-name="Path 2256" class="cls-6" d="M42.17,16.28a16.15,16.15,0,0,1,2.54-3.1A16.15,16.15,0,0,0,42.17,16.28Z" transform="translate(-30.06 -2.51)"/><path id="Path_2257" data-name="Path 2257" class="cls-6" d="M49.31,10.07c.37-.17.76-.33,1.15-.48C50.07,9.74,49.68,9.9,49.31,10.07Z" transform="translate(-30.06 -2.51)"/><path id="Path_2258" data-name="Path 2258" class="cls-6" d="M56.84,8.64l.27,0Z" transform="translate(-30.06 -2.51)"/><path id="Path_2259" data-name="Path 2259" class="cls-6" d="M61.5,9.56l.33.13Z" transform="translate(-30.06 -2.51)"/><path id="Path_2260" data-name="Path 2260" class="cls-6" d="M62.22,9.84l.33.14Z" transform="translate(-30.06 -2.51)"/><path id="Path_2261" data-name="Path 2261" class="cls-6" d="M63.63,10.5l.3.16Z" transform="translate(-30.06 -2.51)"/><path id="Path_2262" data-name="Path 2262" class="cls-6" d="M64.3,10.87l.29.17Z" transform="translate(-30.06 -2.51)"/><path id="Path_2263" data-name="Path 2263" class="cls-6" d="M62.93,10.15l.32.15Z" transform="translate(-30.06 -2.51)"/><path id="Path_2264" data-name="Path 2264" class="cls-6" d="M58.45,8.8l.33.06Z" transform="translate(-30.06 -2.51)"/><path id="Path_2265" data-name="Path 2265" class="cls-6" d="M59.23,8.94l.34.07Z" transform="translate(-30.06 -2.51)"/><path id="Path_2266" data-name="Path 2266" class="cls-6" d="M60.76,9.32l.33.11Z" transform="translate(-30.06 -2.51)"/><path id="Path_2267" data-name="Path 2267" class="cls-6" d="M57.65,8.7l.32,0Z" transform="translate(-30.06 -2.51)"/><path id="Path_2268" data-name="Path 2268" class="cls-6" d="M60,9.11l.34.09Z" transform="translate(-30.06 -2.51)"/><path id="Path_2269" data-name="Path 2269" class="cls-6" d="M72.31,23.31Z" transform="translate(-30.06 -2.51)"/><path id="Path_2270" data-name="Path 2270" class="cls-2" d="M78.38,22.44h0a22.5,22.5,0,0,0-44.55-1.1H31.07a1,1,0,0,0-1,.88,1,1,0,0,0,.28.77l3.18,3.18.12.11L35.43,28a2.08,2.08,0,0,0,3,0h0l1.36-1.36L43.43,23a1,1,0,0,0,.28-.66,1,1,0,0,0-.92-1H40.07a16.24,16.24,0,0,1,2.1-5h0a16,16,0,0,1,2.53-3.1l.07-.07c.31-.29.63-.58,1-.85l0,0a17.19,17.19,0,0,1,2.14-1.46l.13-.07c.35-.2.72-.39,1.09-.56l.16-.07c.38-.17.77-.33,1.16-.47l.08,0c.39-.14.78-.26,1.17-.37l.13,0c.4-.1.8-.19,1.21-.27l.23,0c.4-.07.81-.13,1.22-.17h.21c.43,0,.87-.06,1.31-.06h0l.82,0,.27,0,.54,0,.31,0,.48.06.34.06.45.08.33.07.44.1.33.09.42.12.34.11.4.13.33.12.4.16.32.14.39.17.31.15.38.2.3.16.37.21.29.18c.13.07.25.15.37.23l.28.18.36.26.26.19.38.3.22.17.57.49.1.1.45.43.2.21.32.34c.07.08.15.16.22.25l.28.32.22.27.25.33a3.06,3.06,0,0,1,.21.29l.24.33c.08.11.13.2.2.3s.15.22.22.34l.19.31.2.35c.06.12.12.21.17.32l.19.36a3.36,3.36,0,0,0,.16.33l.16.37c.06.12.1.22.15.34s.1.25.15.37a2.84,2.84,0,0,0,.13.35l.13.39c0,.13.08.23.11.35l.12.41c0,.11.06.23.1.35s.06.28.1.42.05.23.07.34.06.3.08.46v0l.06.31c0,.25.07.51.1.78h0l1.36-1.37a2.08,2.08,0,0,1,2.94,0l1.88,1.88C78.47,23.36,78.43,22.89,78.38,22.44Z" transform="translate(-30.06 -2.51)"/><path id="Path_2271" data-name="Path 2271" class="cls-7" d="M54.4,41.29l-.32,0Z" transform="translate(-30.06 -2.51)"/><path id="Path_2272" data-name="Path 2272" class="cls-7" d="M43.94,36l-.21-.24Z" transform="translate(-30.06 -2.51)"/><path id="Path_2273" data-name="Path 2273" class="cls-7" d="M43.44,35.47l-.21-.27Z" transform="translate(-30.06 -2.51)"/><path id="Path_2274" data-name="Path 2274" class="cls-7" d="M42.11,33.61c-.07-.1-.13-.21-.19-.31C42,33.4,42,33.51,42.11,33.61Z" transform="translate(-30.06 -2.51)"/><path id="Path_2275" data-name="Path 2275" class="cls-7" d="M44.47,36.59l-.2-.21Z" transform="translate(-30.06 -2.51)"/><path id="Path_2276" data-name="Path 2276" class="cls-7" d="M43,34.87l-.21-.28Z" transform="translate(-30.06 -2.51)"/><path id="Path_2277" data-name="Path 2277" class="cls-7" d="M42.52,34.25l-.2-.3Z" transform="translate(-30.06 -2.51)"/><path id="Path_2278" data-name="Path 2278" class="cls-7" d="M47.75,39.12,47.46,39Z" transform="translate(-30.06 -2.51)"/><path id="Path_2279" data-name="Path 2279" class="cls-7" d="M45,37.12,44.93,37Z" transform="translate(-30.06 -2.51)"/><path id="Path_2280" data-name="Path 2280" class="cls-7" d="M47.09,38.71l-.27-.18Z" transform="translate(-30.06 -2.51)"/><path id="Path_2281" data-name="Path 2281" class="cls-7" d="M45.8,37.78l-.21-.17Z" transform="translate(-30.06 -2.51)"/><path id="Path_2282" data-name="Path 2282" class="cls-7" d="M46.45,38.27l-.26-.19Z" transform="translate(-30.06 -2.51)"/><path id="Path_2283" data-name="Path 2283" class="cls-7" d="M40.05,28.58c0-.11,0-.22-.07-.34C40,28.36,40,28.47,40.05,28.58Z" transform="translate(-30.06 -2.51)"/><path id="Path_2284" data-name="Path 2284" class="cls-7" d="M39.85,27.55a1.43,1.43,0,0,1,0,.22,1.43,1.43,0,0,0,0-.22Z" transform="translate(-30.06 -2.51)"/><path id="Path_2285" data-name="Path 2285" class="cls-7" d="M40.25,29.36c0-.11-.07-.23-.1-.35A3.57,3.57,0,0,0,40.25,29.36Z" transform="translate(-30.06 -2.51)"/><path id="Path_2286" data-name="Path 2286" class="cls-8" d="M81.71,27.05l0-.05L78.5,23.82l-1.88-1.88a2.08,2.08,0,0,0-2.94,0l-1.37,1.37L68.62,27s0,0,0,.06a1,1,0,0,0,.08,1.35,1,1,0,0,0,.64.25H72a16.24,16.24,0,0,1-2.1,5.05h0a16.34,16.34,0,0,1-2.53,3.1l-.07.07c-.31.29-.63.57-1,.85l0,0a17.19,17.19,0,0,1-2.14,1.46l-.13.07c-.35.2-.72.39-1.09.56l-.16.07c-.38.17-.77.33-1.16.47l-.08,0c-.38.13-.77.26-1.17.37l-.13,0c-.4.1-.8.2-1.21.27l-.23,0c-.4.07-.81.12-1.22.16l-.21,0c-.43,0-.87.06-1.31.06h0c-.28,0-.55,0-.82,0l-.27,0-.54,0-.31,0-.48-.07-.34,0-.45-.08L52.49,41l-.44-.1-.33-.09-.42-.12L51,40.56l-.4-.14-.33-.12-.4-.15L49.51,40l-.39-.18-.31-.15c-.13-.06-.26-.12-.38-.19l-.3-.16-.37-.22-.3-.17-.36-.23-.28-.18-.37-.27-.25-.18-.39-.31-.21-.16-.57-.5L44.94,37c-.16-.14-.31-.29-.46-.44l-.2-.2L44,36l-.21-.24-.29-.33-.21-.27L43,34.86l-.21-.28-.24-.34-.2-.3c-.07-.1-.15-.22-.22-.34s-.12-.2-.18-.31a2.91,2.91,0,0,1-.2-.35l-.18-.32-.18-.36-.16-.33c-.05-.11-.11-.25-.17-.37s-.1-.22-.14-.34-.1-.25-.15-.38l-.13-.34-.14-.4c0-.11-.07-.23-.11-.34s-.08-.27-.11-.41a3.57,3.57,0,0,1-.1-.35c0-.14-.07-.28-.1-.42s-.06-.23-.08-.34-.06-.32-.08-.48a1.7,1.7,0,0,1,0-.22l-.12.11L38.38,29a2.08,2.08,0,0,1-3,0h0l-1.6-1.6-.2-.2a22.5,22.5,0,0,0,44.59,1.43H81a1,1,0,0,0,1-1A1,1,0,0,0,81.71,27.05Z" transform="translate(-30.06 -2.51)"/><path id="Path_2287" data-name="Path 2287" class="cls-7" d="M41,31.57a3.45,3.45,0,0,1-.14-.34A3.45,3.45,0,0,0,41,31.57Z" transform="translate(-30.06 -2.51)"/><path id="Path_2288" data-name="Path 2288" class="cls-7" d="M41.36,32.27c-.06-.11-.11-.22-.16-.33C41.25,32.05,41.3,32.16,41.36,32.27Z" transform="translate(-30.06 -2.51)"/><path id="Path_2289" data-name="Path 2289" class="cls-7" d="M41.72,32.94l-.18-.32C41.6,32.74,41.66,32.84,41.72,32.94Z" transform="translate(-30.06 -2.51)"/><path id="Path_2290" data-name="Path 2290" class="cls-7" d="M72,28.65a16.39,16.39,0,0,1-2.1,5.06A16.29,16.29,0,0,0,72,28.65Z" transform="translate(-30.06 -2.51)"/><path id="Path_2291" data-name="Path 2291" class="cls-7" d="M40.48,30.11l-.12-.34Z" transform="translate(-30.06 -2.51)"/><path id="Path_2292" data-name="Path 2292" class="cls-7" d="M40.74,30.85c-.05-.11-.09-.23-.13-.34C40.65,30.62,40.69,30.74,40.74,30.85Z" transform="translate(-30.06 -2.51)"/><path id="Path_2293" data-name="Path 2293" class="cls-7" d="M62.74,39.92c-.38.17-.76.33-1.15.47C62,40.25,62.37,40.09,62.74,39.92Z" transform="translate(-30.06 -2.51)"/><path id="Path_2294" data-name="Path 2294" class="cls-7" d="M61.51,40.42c-.39.14-.78.26-1.17.37C60.73,40.68,61.12,40.56,61.51,40.42Z" transform="translate(-30.06 -2.51)"/><path id="Path_2295" data-name="Path 2295" class="cls-7" d="M60.21,40.83c-.4.1-.8.19-1.21.26C59.41,41,59.81,40.93,60.21,40.83Z" transform="translate(-30.06 -2.51)"/><path id="Path_2296" data-name="Path 2296" class="cls-7" d="M58.77,41.13c-.4.07-.81.13-1.22.16C58,41.26,58.37,41.2,58.77,41.13Z" transform="translate(-30.06 -2.51)"/><path id="Path_2297" data-name="Path 2297" class="cls-7" d="M64,39.29c-.35.2-.72.38-1.09.55C63.28,39.67,63.65,39.49,64,39.29Z" transform="translate(-30.06 -2.51)"/><path id="Path_2298" data-name="Path 2298" class="cls-7" d="M69.88,33.71a16,16,0,0,1-2.53,3.1A16,16,0,0,0,69.88,33.71Z" transform="translate(-30.06 -2.51)"/><path id="Path_2299" data-name="Path 2299" class="cls-7" d="M67.28,36.88c-.31.29-.63.58-1,.85C66.65,37.46,67,37.17,67.28,36.88Z" transform="translate(-30.06 -2.51)"/><path id="Path_2300" data-name="Path 2300" class="cls-7" d="M57.34,41.31c-.43,0-.87.06-1.31.06C56.47,41.37,56.91,41.34,57.34,41.31Z" transform="translate(-30.06 -2.51)"/><path id="Path_2301" data-name="Path 2301" class="cls-7" d="M53.61,41.19l-.34-.06Z" transform="translate(-30.06 -2.51)"/><path id="Path_2302" data-name="Path 2302" class="cls-7" d="M56,41.37" transform="translate(-30.06 -2.51)"/><path id="Path_2303" data-name="Path 2303" class="cls-7" d="M49.83,40.15,49.5,40Z" transform="translate(-30.06 -2.51)"/><path id="Path_2304" data-name="Path 2304" class="cls-7" d="M51.3,40.67,51,40.56Z" transform="translate(-30.06 -2.51)"/><path id="Path_2305" data-name="Path 2305" class="cls-7" d="M49.12,39.83l-.32-.15A2.3,2.3,0,0,0,49.12,39.83Z" transform="translate(-30.06 -2.51)"/><path id="Path_2306" data-name="Path 2306" class="cls-7" d="M50.55,40.43l-.33-.13Z" transform="translate(-30.06 -2.51)"/><path id="Path_2307" data-name="Path 2307" class="cls-7" d="M55.21,41.35l-.27,0Z" transform="translate(-30.06 -2.51)"/><path id="Path_2308" data-name="Path 2308" class="cls-7" d="M52.82,41.05,52.48,41Z" transform="translate(-30.06 -2.51)"/><path id="Path_2309" data-name="Path 2309" class="cls-7" d="M48.42,39.49l-.3-.16Z" transform="translate(-30.06 -2.51)"/><path id="Path_2310" data-name="Path 2310" class="cls-7" d="M52.05,40.88l-.34-.09Z" transform="translate(-30.06 -2.51)"/><path id="Path_2311" data-name="Path 2311" class="cls-4" d="M43.72,22.34h0a.94.94,0,0,1-.28.65l-3.69,3.69L38.38,28a2.08,2.08,0,0,1-3,0h0l-1.76-1.76-.11-.11L30.38,23a1,1,0,0,1-.28-.77h0s-.19,1.28.28,1.75l3.18,3.18.08.08.2.2,1.6,1.6a2.08,2.08,0,0,0,2.94,0h0l1.36-1.37.11-.11s0-.06,0-.09h0s0,.06,0,.1L43.43,24C43.88,23.52,43.72,22.34,43.72,22.34Z" transform="translate(-30.06 -2.51)"/><path id="Path_2312" data-name="Path 2312" class="cls-7" d="M39.84,27.46s0,.06,0,.09h0S39.84,27.49,39.84,27.46Z" transform="translate(-30.06 -2.51)"/></g></g></svg>