<svg id="Layer_1" data-name="Layer 1" xmlns="http://www.w3.org/2000/svg" viewBox="0 0 172.04 45"><defs><style>.cls-1{fill:#00b5f1;}.cls-2{fill:#004cac;}.cls-3{fill:#2d80c9;}.cls-4{fill:#008ad8;}.cls-5{fill:#002d5e;}.cls-6{fill:#fff;stroke:#fff;stroke-miterlimit:10;stroke-width:7.16px;}</style></defs><g id="Group_1557" data-name="Group 1557"><g id="Group_1552" data-name="Group 1552"><path id="Path_2063" data-name="Path 2063" class="cls-1" d="M67,23.06c0-2.8,2.09-4.6,5-4.6s4.93,1.69,4.93,4v.72H75.34v-.42C75.34,21,74,20,71.94,20a3.15,3.15,0,0,0-3.4,2.88,4.68,4.68,0,0,0,0,.53v5.57a3.15,3.15,0,0,0,2.87,3.42,2.35,2.35,0,0,0,.53,0c2,0,3.4-1.1,3.4-2.81v-.63h1.54v.93c0,2.3-2,4-4.93,4s-5-1.8-5-4.6Z" transform="translate(-5.19 -2.5)"/><path id="Path_2064" data-name="Path 2064" class="cls-1" d="M79.12,25.81c0-2.68,1.71-4.31,4.46-4.31S88,23.13,88,25.81v3.63c0,2.68-1.71,4.3-4.45,4.3s-4.46-1.62-4.46-4.3Zm1.5,3.38c0,2.11,1.06,3.2,3,3.2s3-1.1,3-3.2V26.06c0-2.11-1-3.21-3-3.21s-3,1.1-3,3.21Z" transform="translate(-5.19 -2.5)"/><path id="Path_2065" data-name="Path 2065" class="cls-1" d="M90.65,21.71H92l.1,1.29a4.66,4.66,0,0,1,3.27-1.5c2.64,0,3.93,1.31,3.93,4v8h-1.5V25.77c0-2-.63-2.92-2.53-2.92a4.23,4.23,0,0,0-3.1,1.69v9h-1.5Z" transform="translate(-5.19 -2.5)"/><path id="Path_2066" data-name="Path 2066" class="cls-1" d="M102,23h-1.35V21.71H102l.17-2.95h1.33v2.95h3.74V23h-3.74v6.69c0,1.9.78,2.79,2.51,2.79a5.89,5.89,0,0,0,1.67-.21v1.24a6.28,6.28,0,0,1-1.67.28c-2.57,0-4-1.2-4-3.89Z" transform="translate(-5.19 -2.5)"/><path id="Path_2067" data-name="Path 2067" class="cls-1" d="M109,25.7c0-2.68,1.37-4.2,4-4.2a4.93,4.93,0,0,1,3.35,1.5l.11-1.28h1.33V33.53h-1.33l-.11-1.28a4.83,4.83,0,0,1-3.35,1.5c-2.64,0-4-1.52-4-4.2Zm1.5,3.57c0,2,.72,3.12,2.61,3.12a4.39,4.39,0,0,0,3.19-1.68V24.54a4.52,4.52,0,0,0-3.19-1.69c-1.9,0-2.61,1.1-2.61,3.13Z" transform="translate(-5.19 -2.5)"/><path id="Path_2068" data-name="Path 2068" class="cls-1" d="M120.51,17.7H122V23a4.79,4.79,0,0,1,3.3-1.46c2.63,0,4,1.52,4,4.2v3.84c0,2.68-1.38,4.2-4,4.2a4.81,4.81,0,0,1-3.36-1.5l-.11,1.29h-1.33Zm1.5,13a4.38,4.38,0,0,0,3.19,1.69c1.9,0,2.62-1.1,2.62-3.12V26c0-2-.72-3.13-2.62-3.13A4.42,4.42,0,0,0,122,24.54Z" transform="translate(-5.19 -2.5)"/><path id="Path_2069" data-name="Path 2069" class="cls-1" d="M131.93,23l-1.33-.12v-1.2h2.83V33.53h-1.5Zm-.25-4.2c0-.78.38-1.14.95-1.14s1,.36,1,1.14a.93.93,0,0,1-.79,1.07.81.81,0,0,1-.22,0C132.06,19.92,131.68,19.58,131.68,18.84Z" transform="translate(-5.19 -2.5)"/><path id="Path_2070" data-name="Path 2070" class="cls-1" d="M136.17,17.7h1.5V31.32c0,.59.09,1,.79,1a3,3,0,0,0,.52,0v1.16a7.1,7.1,0,0,1-1.22.12c-1.06,0-1.58-.48-1.58-1.67Z" transform="translate(-5.19 -2.5)"/><path id="Path_2071" data-name="Path 2071" class="cls-1" d="M141.47,23l-1.33-.12v-1.2H143V33.53h-1.5Zm-.25-4.2c0-.78.38-1.14.95-1.14s1,.36,1,1.14a.93.93,0,0,1-.79,1.07.81.81,0,0,1-.22,0C141.6,19.92,141.22,19.58,141.22,18.84Z" transform="translate(-5.19 -2.5)"/><path id="Path_2072" data-name="Path 2072" class="cls-1" d="M154.39,33.53h-1.33L153,32.25a4.83,4.83,0,0,1-3.35,1.5c-2.64,0-4-1.52-4-4.2V25.7c0-2.68,1.37-4.2,4-4.2a4.73,4.73,0,0,1,3.29,1.4V17.7h1.5Zm-7.3-4.26c0,2,.72,3.12,2.62,3.12a4.36,4.36,0,0,0,3.18-1.69V24.54a4.52,4.52,0,0,0-3.18-1.69c-1.9,0-2.62,1.1-2.62,3.13Z" transform="translate(-5.19 -2.5)"/><path id="Path_2073" data-name="Path 2073" class="cls-1" d="M157,25.7c0-2.68,1.37-4.2,4-4.2a4.93,4.93,0,0,1,3.35,1.5l.11-1.28h1.33V33.53h-1.33l-.11-1.28a4.85,4.85,0,0,1-3.35,1.5c-2.64,0-4-1.52-4-4.2Zm1.5,3.57c0,2,.72,3.12,2.61,3.12a4.39,4.39,0,0,0,3.19-1.68V24.54a4.52,4.52,0,0,0-3.19-1.69c-1.9,0-2.61,1.1-2.61,3.13Z" transform="translate(-5.19 -2.5)"/><path id="Path_2074" data-name="Path 2074" class="cls-1" d="M177.23,33.53H175.9l-.11-1.28a4.85,4.85,0,0,1-3.35,1.5c-2.64,0-4-1.52-4-4.2V25.7c0-2.68,1.37-4.2,4-4.2a4.75,4.75,0,0,1,3.29,1.4V17.7h1.5Zm-7.3-4.26c0,2,.71,3.12,2.61,3.12a4.36,4.36,0,0,0,3.19-1.69V24.54a4.54,4.54,0,0,0-3.19-1.69c-1.9,0-2.61,1.1-2.61,3.13Z" transform="translate(-5.19 -2.5)"/></g><g id="Group_1553" data-name="Group 1553"><path id="Path_2075" data-name="Path 2075" class="cls-2" d="M126.92,11.53A2.31,2.31,0,0,1,123,9.87a2.22,2.22,0,0,1,.73-1.69,2.29,2.29,0,0,1,1.59-.62,2.32,2.32,0,0,1,2.31,2.31,2.23,2.23,0,0,1-.7,1.66m-3-3a1.86,1.86,0,0,0-.56,1.34,1.88,1.88,0,0,0,.56,1.36,1.92,1.92,0,0,0,3.27-1.36,1.94,1.94,0,0,0-.56-1.34A1.78,1.78,0,0,0,125.31,8a1.75,1.75,0,0,0-1.36.57m.35,2.62V8.59h1.23a1.46,1.46,0,0,1,.51.12.67.67,0,0,1,.34.62.55.55,0,0,1-.18.47.9.9,0,0,1-.44.18.67.67,0,0,1,.36.14.71.71,0,0,1,.23.58v.22a.22.22,0,0,0,0,.08.22.22,0,0,0,0,.08l0,.07h-.65c0-.12,0-.24,0-.36a1.1,1.1,0,0,0,0-.31.29.29,0,0,0-.19-.18.46.46,0,0,0-.23-.05H125v.9Zm1.22-2.05a1,1,0,0,0-.39,0H125v.74h.26a.61.61,0,0,0,.37-.1.33.33,0,0,0,.14-.3.29.29,0,0,0-.21-.29" transform="translate(-5.19 -2.5)"/><path id="Path_2076" data-name="Path 2076" class="cls-2" d="M77.67,13.2A4.23,4.23,0,0,1,76,12.85a3,3,0,0,1-1.36-1.11,3.29,3.29,0,0,1-.54-2,4.91,4.91,0,0,1,.34-1.86,3.9,3.9,0,0,1,.94-1.37,4,4,0,0,1,1.35-.82,4.66,4.66,0,0,1,1.61-.28,3.87,3.87,0,0,1,1.8.42,3,3,0,0,1,1.25,1.19,3.64,3.64,0,0,1,.45,1.82,5,5,0,0,1-.29,1.71,3.9,3.9,0,0,1-2.15,2.28,4.37,4.37,0,0,1-1.71.32M78.23,7A2,2,0,0,0,77,7.41a2.58,2.58,0,0,0-.82,1,3,3,0,0,0-.27,1.25,2.05,2.05,0,0,0,.49,1.4,1.68,1.68,0,0,0,1.35.58,2.18,2.18,0,0,0,1-.21,2.43,2.43,0,0,0,.75-.6,2.89,2.89,0,0,0,.47-.86A3.17,3.17,0,0,0,80,9,2.35,2.35,0,0,0,79.81,8a1.7,1.7,0,0,0-1.58-1" transform="translate(-5.19 -2.5)"/><path id="Path_2077" data-name="Path 2077" class="cls-2" d="M92.34,13.12,93.25,7h-2.5l.12-.8h0v0a.73.73,0,0,1,.73-.65h6.09l-.12.84v0a.74.74,0,0,1-.72.61H95l-.9,6.11Z" transform="translate(-5.19 -2.5)"/><path id="Path_2078" data-name="Path 2078" class="cls-2" d="M102.89,6.17a2.71,2.71,0,0,0-2-.63H98.46l-1.11,7.58h.94a.88.88,0,0,0,.87-.76v0l.3-2h1.37a3,3,0,0,0,1.52-.35,2.09,2.09,0,0,0,.87-.92,2.73,2.73,0,0,0,.28-1.26,2.29,2.29,0,0,0-.61-1.63m-1.18,1.71a1.46,1.46,0,0,1-1.26,1.38h-.84L100,6.67a2.75,2.75,0,0,1,.7,0c.46,0,1.1.18,1,1.25" transform="translate(-5.19 -2.5)"/><path id="Path_2079" data-name="Path 2079" class="cls-2" d="M88.52,5.53l-.72,4.9L85.64,7a2.77,2.77,0,0,0-2.43-1.42h-.1L82,13.12H83.7l.73-4.91,2.16,3.49A2.77,2.77,0,0,0,89,13.12h.1l1.12-7.59Zm-.72,4.91Z" transform="translate(-5.19 -2.5)"/><path id="Path_2080" data-name="Path 2080" class="cls-2" d="M107.69,5.54h-.58a2.12,2.12,0,0,0-1.85,1.09l-.06.1,0,0-3.25,6.34h1.79l.85-1.75H107l.21,1.75h1.84Zm-2.62,4.77,1.46-3,.41,3Z" transform="translate(-5.19 -2.5)"/><path id="Path_2081" data-name="Path 2081" class="cls-2" d="M116.72,11.5l-.24-.23a4.12,4.12,0,0,0,.32-.67,5.25,5.25,0,0,0,.29-1.71,3.6,3.6,0,0,0-.46-1.82,3,3,0,0,0-1.24-1.19,3.78,3.78,0,0,0-1.8-.42,4.66,4.66,0,0,0-1.61.28,4,4,0,0,0-1.35.82,3.82,3.82,0,0,0-.94,1.37,4.72,4.72,0,0,0-.34,1.86,3.39,3.39,0,0,0,.53,2,3.14,3.14,0,0,0,1.36,1.11,4.47,4.47,0,0,0,1.69.34,4.33,4.33,0,0,0,1.71-.32,3.89,3.89,0,0,0,.5-.25l.23.22a1,1,0,0,0,.68.28h1v-1h0a1,1,0,0,0-.28-.67m-3.76.16a1.67,1.67,0,0,1-1.35-.58,2.1,2.1,0,0,1-.49-1.4,3.19,3.19,0,0,1,.27-1.25,2.58,2.58,0,0,1,.82-1A2,2,0,0,1,113.49,7a1.7,1.7,0,0,1,1.58,1A2.35,2.35,0,0,1,115.3,9a3.17,3.17,0,0,1-.15,1,2.68,2.68,0,0,1-.47.86,2.31,2.31,0,0,1-.75.6,2.15,2.15,0,0,1-1,.21" transform="translate(-5.19 -2.5)"/><path id="Path_2082" data-name="Path 2082" class="cls-2" d="M73.43,7.25s-2.46-.77-3.65.39-1.22,3,.09,3.72,3.41-.22,3.55-.45a2.23,2.23,0,0,1-.16,1.44c-.35.73-2.39,1.15-4,.58a3.22,3.22,0,0,1-2.18-3.6,4.1,4.1,0,0,1,3.29-3.71,8.4,8.4,0,0,1,3.86.18Z" transform="translate(-5.19 -2.5)"/><path id="Path_2083" data-name="Path 2083" class="cls-2" d="M121.82,7.56h-1.29a1,1,0,0,0-1,.8l-.71,4.76h0a3.51,3.51,0,0,0,1.38-1.18,6.72,6.72,0,0,0,1.3-2.28Z" transform="translate(-5.19 -2.5)"/><path id="Path_2084" data-name="Path 2084" class="cls-2" d="M121,6.88a1.09,1.09,0,1,0-1.09-1.08h0A1.09,1.09,0,0,0,121,6.88h0" transform="translate(-5.19 -2.5)"/><path id="Path_2085" data-name="Path 2085" class="cls-1" d="M120.21,11.94a3.5,3.5,0,0,1-1.37,1.19h1.3a1,1,0,0,0,1-.8l.38-2.66a6.68,6.68,0,0,1-1.3,2.27" transform="translate(-5.19 -2.5)"/></g><g id="Group_1556" data-name="Group 1556"><path id="Path_2086" data-name="Path 2086" class="cls-3" d="M30.07,47.5H50.9a4.58,4.58,0,0,0,4.58-4.59V32.51h-30v10.4a4.59,4.59,0,0,0,4.59,4.59" transform="translate(-5.19 -2.5)"/><path id="Path_2087" data-name="Path 2087" class="cls-1" d="M30.07,47.5H50.9a4.58,4.58,0,0,0,4.58-4.59V32.51h-30v10.4a4.59,4.59,0,0,0,4.59,4.59" transform="translate(-5.19 -2.5)"/><path id="Path_2088" data-name="Path 2088" class="cls-4" d="M45.42,2.5H31.87c-.63,0-6.39,8.72-6.39,9.39V32.5h30V12.57Z" transform="translate(-5.19 -2.5)"/><path id="Path_2089" data-name="Path 2089" class="cls-2" d="M45.42,2.5H30A4.54,4.54,0,0,0,25.48,7V17.5h30V12.57Z" transform="translate(-5.19 -2.5)"/><path id="Path_2090" data-name="Path 2090" class="cls-5" d="M48.62,13.77l6.86-1.2L45.42,2.5l-.75,7.56c-.35,2.6,1.42,4.27,3.95,3.71" transform="translate(-5.19 -2.5)"/><path id="Path_2091" data-name="Path 2091" class="cls-4" d="M50,12.57h5.49L45.42,2.5V8A4.58,4.58,0,0,0,50,12.57h0" transform="translate(-5.19 -2.5)"/><path id="Path_2092" data-name="Path 2092" class="cls-5" d="M25.48,32.93v9.89l4.2-.66c5-.92,6.88-3.5,6.88-5.89V32.5Z" transform="translate(-5.19 -2.5)"/><g id="Group_1554" data-name="Group 1554"><rect id="Rectangle_1571" data-name="Rectangle 1571" class="cls-6" x="18.07" y="10.31" width="11.41" height="11.41" rx="4.83"/><rect id="Rectangle_1572" data-name="Rectangle 1572" class="cls-6" x="3.58" y="10.31" width="11.41" height="11.41" rx="4.83"/><rect id="Rectangle_1573" data-name="Rectangle 1573" class="cls-6" x="3.58" y="24.8" width="11.41" height="11.41" rx="4.83"/><rect id="Rectangle_1574" data-name="Rectangle 1574" class="cls-6" x="18.07" y="24.8" width="11.41" height="11.41" rx="4.83"/></g><g id="Group_1555" data-name="Group 1555"><rect id="Rectangle_1575" data-name="Rectangle 1575" class="cls-5" x="18.07" y="10.31" width="11.41" height="11.41" rx="4.83"/><rect id="Rectangle_1576" data-name="Rectangle 1576" class="cls-2" x="3.58" y="10.31" width="11.41" height="11.41" rx="4.83"/><rect id="Rectangle_1577" data-name="Rectangle 1577" class="cls-4" x="3.58" y="24.8" width="11.41" height="11.41" rx="4.83"/><rect id="Rectangle_1578" data-name="Rectangle 1578" class="cls-1" x="18.07" y="24.8" width="11.41" height="11.41" rx="4.83"/></g></g></g></svg>