<svg id="Layer_1" data-name="Layer 1" xmlns="http://www.w3.org/2000/svg" viewBox="0 0 180.96 45"><defs><style>.cls-1{fill:#004cac;}.cls-2{fill:#00b5f1;}.cls-3{fill:#008ad8;}.cls-4{fill:#fff;}.cls-5{fill:#003062;}</style></defs><g id="Group_1571" data-name="Group 1571"><g id="Group_1567" data-name="Group 1567"><path id="Path_2313" data-name="Path 2313" class="cls-1" d="M118.85,11.38a2.32,2.32,0,0,1-3.28,0,2.3,2.3,0,0,1-.66-1.64A2.18,2.18,0,0,1,115.64,8a2.29,2.29,0,0,1,1.59-.62,2.32,2.32,0,0,1,2.32,2.31,2.24,2.24,0,0,1-.7,1.67m-3-3a1.92,1.92,0,0,0,0,2.71,1.92,1.92,0,0,0,2.7,0,1.91,1.91,0,0,0,0-2.71,1.74,1.74,0,0,0-1.35-.57,1.78,1.78,0,0,0-1.37.57m.35,2.63V8.43h1.24a1.46,1.46,0,0,1,.51.12.66.66,0,0,1,.34.63.54.54,0,0,1-.17.46.84.84,0,0,1-.45.18.85.85,0,0,1,.37.15.68.68,0,0,1,.22.57v.23a.22.22,0,0,0,0,.08s0,.05,0,.08l0,.06h-.64a2,2,0,0,1-.05-.35,1.63,1.63,0,0,0,0-.31.35.35,0,0,0-.19-.19.51.51,0,0,0-.24,0h-.28V11Zm1.23-2.06a1,1,0,0,0-.39,0h-.16v.75h.25a.69.69,0,0,0,.37-.1.34.34,0,0,0,.14-.3.29.29,0,0,0-.21-.3" transform="translate(-2.52 -2.5)"/><path id="Path_2314" data-name="Path 2314" class="cls-1" d="M69.46,13.05a4.48,4.48,0,0,1-1.7-.34,3,3,0,0,1-1.36-1.12,3.33,3.33,0,0,1-.54-2,4.73,4.73,0,0,1,.35-1.86,3.82,3.82,0,0,1,.94-1.37,4,4,0,0,1,1.35-.83,4.66,4.66,0,0,1,1.61-.28,4,4,0,0,1,1.8.42,3,3,0,0,1,1.25,1.2,3.6,3.6,0,0,1,.46,1.82,5.26,5.26,0,0,1-.29,1.72,3.88,3.88,0,0,1-2.16,2.28,4.41,4.41,0,0,1-1.72.32M70,6.83a2.06,2.06,0,0,0-1.29.42,2.51,2.51,0,0,0-.82,1,3,3,0,0,0-.27,1.26,2.05,2.05,0,0,0,.49,1.4,1.7,1.7,0,0,0,1.35.58,2.2,2.2,0,0,0,1-.22,2.29,2.29,0,0,0,.75-.6,2.53,2.53,0,0,0,.47-.85,3.28,3.28,0,0,0,.15-1A2.35,2.35,0,0,0,71.6,7.8a1.7,1.7,0,0,0-1.58-1" transform="translate(-2.52 -2.5)"/><path id="Path_2315" data-name="Path 2315" class="cls-1" d="M84.17,13l.91-6.13h-2.5l.12-.8h0V6a.74.74,0,0,1,.73-.66h6.11l-.13.85h0a.74.74,0,0,1-.73.62H86.79L85.89,13Z" transform="translate(-2.52 -2.5)"/><path id="Path_2316" data-name="Path 2316" class="cls-1" d="M94.75,6a2.68,2.68,0,0,0-2-.64H90.3L89.19,13h1a.89.89,0,0,0,.87-.77h0l.3-2h1.38a2.89,2.89,0,0,0,1.52-.36,2.2,2.2,0,0,0,.88-.91,2.92,2.92,0,0,0,.27-1.26A2.25,2.25,0,0,0,94.75,6M93.56,7.72A1.44,1.44,0,0,1,92.3,9.1h-.83l.38-2.6a3.39,3.39,0,0,1,.71,0c.46,0,1.1.18,1,1.26" transform="translate(-2.52 -2.5)"/><path id="Path_2317" data-name="Path 2317" class="cls-1" d="M80.34,5.36l-.72,4.92-2.17-3.5A2.75,2.75,0,0,0,75,5.36h-.1L73.79,13h1.72l.73-4.92,2.16,3.5A2.8,2.8,0,0,0,80.84,13h.1l1.12-7.61Zm-.72,4.92Z" transform="translate(-2.52 -2.5)"/><path id="Path_2318" data-name="Path 2318" class="cls-1" d="M99.57,5.37H99a2.12,2.12,0,0,0-1.85,1.09l-.07.1a.12.12,0,0,1,0,.05L93.78,13h1.79l.85-1.75H98.9L99.11,13H101Zm-2.63,4.79,1.46-3,.41,3Z" transform="translate(-2.52 -2.5)"/><path id="Path_2319" data-name="Path 2319" class="cls-1" d="M108.62,11.35l-.24-.24a3.72,3.72,0,0,0,.31-.67A4.77,4.77,0,0,0,109,8.73a3.55,3.55,0,0,0-.45-1.83,3,3,0,0,0-1.25-1.19,3.9,3.9,0,0,0-1.8-.42,4.62,4.62,0,0,0-1.61.28,3.9,3.9,0,0,0-1.36.83,3.82,3.82,0,0,0-.94,1.37,4.72,4.72,0,0,0-.34,1.86,3.39,3.39,0,0,0,.53,2,3.13,3.13,0,0,0,1.37,1.12,4.57,4.57,0,0,0,3.41,0,4.74,4.74,0,0,0,.5-.26l.23.23A1,1,0,0,0,108,13h1V12h0a1,1,0,0,0-.28-.68m-3.77.16a1.65,1.65,0,0,1-1.35-.58,2.11,2.11,0,0,1-.5-1.4,3.16,3.16,0,0,1,.28-1.25,2.61,2.61,0,0,1,.82-1,2,2,0,0,1,1.28-.41,1.7,1.7,0,0,1,1.59,1,2.44,2.44,0,0,1,.23,1.06,2.92,2.92,0,0,1-.16,1,2.68,2.68,0,0,1-.47.86,2.39,2.39,0,0,1-.74.6,2.22,2.22,0,0,1-1,.21" transform="translate(-2.52 -2.5)"/><path id="Path_2320" data-name="Path 2320" class="cls-1" d="M65.21,7.09s-2.47-.77-3.67.39-1.22,3,.09,3.73,3.42-.22,3.57-.45A2.24,2.24,0,0,1,65,12.2c-.36.73-2.4,1.15-4.05.58a3.22,3.22,0,0,1-2.18-3.61A4.11,4.11,0,0,1,62.1,5.45,8.44,8.44,0,0,1,66,5.63Z" transform="translate(-2.52 -2.5)"/><path id="Path_2321" data-name="Path 2321" class="cls-1" d="M113.73,7.4h-1.29a1,1,0,0,0-1,.8L110.72,13h0a3.53,3.53,0,0,0,1.38-1.19,6.72,6.72,0,0,0,1.3-2.28Z" transform="translate(-2.52 -2.5)"/><path id="Path_2322" data-name="Path 2322" class="cls-1" d="M112.9,6.71a1.09,1.09,0,1,0-1.08-1.08h0a1.08,1.08,0,0,0,1.08,1.08h0" transform="translate(-2.52 -2.5)"/><path id="Path_2323" data-name="Path 2323" class="cls-2" d="M112.12,11.79A3.53,3.53,0,0,1,110.74,13H112a1,1,0,0,0,1-.8l.39-2.67a6.82,6.82,0,0,1-1.3,2.28" transform="translate(-2.52 -2.5)"/></g><g id="Group_1568" data-name="Group 1568"><path id="Path_2324" data-name="Path 2324" class="cls-2" d="M61.46,26.55l-3.9-7.85H59.3l3.47,7.17h.59l3.73-7.17H68.8l-4.19,7.83,4.19,7H67L63.32,27.2h-.57l-3.47,6.31H57.53Z" transform="translate(-2.52 -2.5)"/><path id="Path_2325" data-name="Path 2325" class="cls-2" d="M69.86,18.7h1.87L77,28l5.22-9.31h1.87V33.51H82.52l.07-12.43L77.8,29.44H76.15l-4.77-8.31.07,12.38H69.86Z" transform="translate(-2.52 -2.5)"/><path id="Path_2326" data-name="Path 2326" class="cls-2" d="M86.44,18.7H88V32.05h7.22v1.46h-8.8Z" transform="translate(-2.52 -2.5)"/><path id="Path_2327" data-name="Path 2327" class="cls-2" d="M102.23,25.77c0-2.69,1.71-4.32,4.46-4.32s4.47,1.63,4.47,4.32v2.15h-7.43v1.23c0,2.12,1.06,3.22,3,3.22,2.1,0,2.94-1.23,2.94-2.54V29.7h1.46V30c0,1.86-1.58,3.68-4.4,3.68s-4.46-1.63-4.46-4.32Zm7.42.82V26c0-2.12-1.05-3.22-3-3.22s-3,1.1-3,3.22v.57Z" transform="translate(-2.52 -2.5)"/><path id="Path_2328" data-name="Path 2328" class="cls-2" d="M113.74,21.66h1.34l.1,1.29a4.67,4.67,0,0,1,3.28-1.5c2.65,0,3.94,1.31,3.94,4v8.06h-1.5V25.72c0-2-.64-2.92-2.54-2.92a4.21,4.21,0,0,0-3.11,1.7v9h-1.5Z" transform="translate(-2.52 -2.5)"/><path id="Path_2329" data-name="Path 2329" class="cls-2" d="M131,17.64h1.5V31.29c0,.59.08,1,.78,1a1.87,1.87,0,0,0,.53,0v1.17a7.12,7.12,0,0,1-1.23.12c-1.05,0-1.58-.48-1.58-1.67Z" transform="translate(-2.52 -2.5)"/><path id="Path_2330" data-name="Path 2330" class="cls-2" d="M135.2,23l-1.33-.12V21.66h2.84V33.51h-1.5Zm1.21-5.1h1.8l-2,2.59h-1.46Z" transform="translate(-2.52 -2.5)"/><path id="Path_2331" data-name="Path 2331" class="cls-2" d="M139.46,21.66h1.33L140.9,23a4.67,4.67,0,0,1,3.28-1.5c2.64,0,3.94,1.31,3.94,4v8.06h-1.5V25.72c0-2-.64-2.92-2.54-2.92A4.18,4.18,0,0,0,141,24.5v9h-1.5Z" transform="translate(-2.52 -2.5)"/><path id="Path_2332" data-name="Path 2332" class="cls-2" d="M150.7,25.77c0-2.69,1.71-4.32,4.46-4.32s4.47,1.63,4.47,4.32v2.15H152.2v1.23c0,2.12,1.06,3.22,3,3.22,2.1,0,3-1.23,3-2.54V29.7h1.45V30c0,1.86-1.59,3.68-4.4,3.68s-4.47-1.63-4.47-4.32Zm7.43.82V26c0-2.12-1.06-3.22-3-3.22s-3,1.1-3,3.22v.57Z" transform="translate(-2.52 -2.5)"/><path id="Path_2333" data-name="Path 2333" class="cls-2" d="M162.09,25.66c0-2.69,1.37-4.21,4-4.21a5,5,0,0,1,3.36,1.5l.11-1.29h1.33V33.51h-1.33l-.11-1.29a4.87,4.87,0,0,1-3.36,1.5c-2.65,0-4-1.52-4-4.21Zm1.5,3.58c0,2,.72,3.13,2.62,3.13a4.42,4.42,0,0,0,3.2-1.69V24.5a4.52,4.52,0,0,0-3.2-1.7c-1.9,0-2.62,1.1-2.62,3.13Z" transform="translate(-2.52 -2.5)"/><path id="Path_2334" data-name="Path 2334" class="cls-2" d="M177.64,27.82h-4.4V26.38h4.4V21.6h1.44v4.78h4.4v1.44h-4.4v4.79h-1.44Z" transform="translate(-2.52 -2.5)"/></g><g id="Group_1569" data-name="Group 1569"><path id="Path_2335" data-name="Path 2335" class="cls-3" d="M37.39,2.5H23.84c-.62,0-6.38,8.71-6.38,9.38V32.5h30V12.57Z" transform="translate(-2.52 -2.5)"/><path id="Path_2336" data-name="Path 2336" class="cls-3" d="M22,2.5H42.87a4.59,4.59,0,0,1,4.59,4.59h0V17.5h-30V7.09A4.58,4.58,0,0,1,22,2.5" transform="translate(-2.52 -2.5)"/><path id="Path_2337" data-name="Path 2337" class="cls-2" d="M22,47.5H42.87a4.59,4.59,0,0,0,4.59-4.59V32.5h-30V42.91A4.59,4.59,0,0,0,22,47.5h0" transform="translate(-2.52 -2.5)"/><path id="Path_2338" data-name="Path 2338" class="cls-4" d="M21.9,13.77h0a.89.89,0,0,0,.89.89H42.4a.89.89,0,0,0,0-1.77H22.79a.88.88,0,0,0-.89.88" transform="translate(-2.52 -2.5)"/><path id="Path_2339" data-name="Path 2339" class="cls-4" d="M42.4,18.8H22.78a.89.89,0,0,1,0-1.78H42.4a.89.89,0,0,1,0,1.78" transform="translate(-2.52 -2.5)"/><path id="Path_2340" data-name="Path 2340" class="cls-4" d="M42.4,22.93H22.78a.89.89,0,0,1,0-1.77H42.4a.89.89,0,0,1,0,1.77" transform="translate(-2.52 -2.5)"/><path id="Path_2341" data-name="Path 2341" class="cls-4" d="M38.34,27.07H22.78a.89.89,0,0,1-.88-.89.87.87,0,0,1,.88-.88H38.33a.89.89,0,0,1,0,1.77h0" transform="translate(-2.52 -2.5)"/><path id="Path_2342" data-name="Path 2342" class="cls-1" d="M17.46,7.09V9.38h30V7.09A4.59,4.59,0,0,0,42.87,2.5H22a4.58,4.58,0,0,0-4.58,4.59h0" transform="translate(-2.52 -2.5)"/><path id="Path_2343" data-name="Path 2343" class="cls-2" d="M44.66,5.94A1.56,1.56,0,1,1,43.1,4.38h0a1.57,1.57,0,0,1,1.56,1.56" transform="translate(-2.52 -2.5)"/><path id="Path_2344" data-name="Path 2344" class="cls-2" d="M40.14,5.94a1.56,1.56,0,1,1-1.55-1.56h0a1.55,1.55,0,0,1,1.55,1.56" transform="translate(-2.52 -2.5)"/></g><path id="Path_2345" data-name="Path 2345" class="cls-5" d="M29.94,32.58H17.44V43a4.49,4.49,0,0,0,.21,1.36A18.16,18.16,0,0,0,29.94,32.58" transform="translate(-2.52 -2.5)"/><path id="Path_2346" data-name="Path 2346" class="cls-1" d="M30.72,27.82a14.1,14.1,0,1,1-14.11-14.1,14.1,14.1,0,0,1,14.11,14.1h0" transform="translate(-2.52 -2.5)"/><g id="Group_1570" data-name="Group 1570"><path id="Path_2347" data-name="Path 2347" class="cls-4" d="M15.87,35.3A1.11,1.11,0,0,1,15.1,35L10.31,30.2a1.09,1.09,0,0,1,1.54-1.54l4,4,4-4a1.09,1.09,0,0,1,1.55,0,1.08,1.08,0,0,1,0,1.54L16.64,35A1,1,0,0,1,15.87,35.3Z" transform="translate(-2.52 -2.5)"/><path id="Path_2348" data-name="Path 2348" class="cls-4" d="M15.87,35.31a1.09,1.09,0,0,1-1.09-1.09h0V21.42a1.09,1.09,0,1,1,2.18,0v12.8a1.09,1.09,0,0,1-1.09,1.09Z" transform="translate(-2.52 -2.5)"/></g></g></svg>