<svg id="Layer_1" data-name="Layer 1" xmlns="http://www.w3.org/2000/svg" viewBox="0 0 189.31 45.01"><defs><style>.cls-1{fill:#2d80c9;}.cls-2{fill:#0b938a;}.cls-3{fill:#3ab3a5;}.cls-4{fill:#fff;}.cls-5{fill:#003c3b;}.cls-6{fill:#005e5c;}.cls-7{fill:#004cac;}.cls-8{fill:#00b5f1;}</style></defs><g id="Group_1583" data-name="Group 1583"><g id="Group_1580" data-name="Group 1580"><path id="Rectangle_1598" data-name="Rectangle 1598" class="cls-1" d="M17.25,32.4H47.19v6.26a8.68,8.68,0,0,1-8.68,8.68H25.93a8.68,8.68,0,0,1-8.68-8.68h0V32.4Z" transform="translate(-2.35 -2.5)"/><path id="Rectangle_1599" data-name="Rectangle 1599" class="cls-2" d="M17.25,32.4H47.19v6.26a8.68,8.68,0,0,1-8.68,8.68H25.93a8.68,8.68,0,0,1-8.68-8.68h0V32.4Z" transform="translate(-2.35 -2.5)"/><path id="Path_2384" data-name="Path 2384" class="cls-3" d="M37.14,2.5H23.62c-.62,0-6.37,8.68-6.37,9.35V32.4H47.19V12.53Z" transform="translate(-2.35 -2.5)"/><path id="Path_2385" data-name="Path 2385" class="cls-3" d="M37.14,2.5H21.78A4.52,4.52,0,0,0,17.25,7V17.44H47.19V12.53Z" transform="translate(-2.35 -2.5)"/><g id="Group_1579" data-name="Group 1579"><path id="Rectangle_1600" data-name="Rectangle 1600" class="cls-4" d="M23.73,10.75h17a.89.89,0,0,1,.89.89h0a.89.89,0,0,1-.89.89h-17a.89.89,0,0,1-.9-.89h0A.89.89,0,0,1,23.73,10.75Z" transform="translate(-2.35 -2.5)"/><path id="Rectangle_1601" data-name="Rectangle 1601" class="cls-4" d="M23.73,14.91H43.28a.89.89,0,0,1,.9.89h0a.89.89,0,0,1-.9.89H23.73a.89.89,0,0,1-.9-.89h0A.89.89,0,0,1,23.73,14.91Z" transform="translate(-2.35 -2.5)"/><path id="Rectangle_1602" data-name="Rectangle 1602" class="cls-4" d="M23.73,19.07H43.28a.89.89,0,0,1,.9.89h0a.89.89,0,0,1-.9.89H23.73a.89.89,0,0,1-.9-.89h0A.89.89,0,0,1,23.73,19.07Z" transform="translate(-2.35 -2.5)"/><path id="Rectangle_1603" data-name="Rectangle 1603" class="cls-4" d="M23.73,23.23H43.28a.89.89,0,0,1,.9.89h0a.89.89,0,0,1-.9.89H23.73a.89.89,0,0,1-.9-.89h0A.89.89,0,0,1,23.73,23.23Z" transform="translate(-2.35 -2.5)"/><path id="Rectangle_1604" data-name="Rectangle 1604" class="cls-4" d="M23.73,27.39H38a.89.89,0,0,1,.89.89h0a.89.89,0,0,1-.89.9H23.73a.9.9,0,0,1-.9-.9h0A.89.89,0,0,1,23.73,27.39Z" transform="translate(-2.35 -2.5)"/></g><path id="Path_2386" data-name="Path 2386" class="cls-5" d="M40.34,13.73l6.85-1.2-10-10L36.39,10C36.05,12.63,37.81,14.28,40.34,13.73Z" transform="translate(-2.35 -2.5)"/><path id="Path_2387" data-name="Path 2387" class="cls-2" d="M41.71,12.53h5.48l-10-10V8A4.57,4.57,0,0,0,41.71,12.53Z" transform="translate(-2.35 -2.5)"/></g><path id="Path_2388" data-name="Path 2388" class="cls-5" d="M29.72,32.4H17.25V42.77a4.49,4.49,0,0,0,.21,1.36A18.14,18.14,0,0,0,29.72,32.4Z" transform="translate(-2.35 -2.5)"/><ellipse id="Ellipse_135" data-name="Ellipse 135" class="cls-6" cx="14.08" cy="25.16" rx="14.08" ry="14.06"/><g id="Group_1582" data-name="Group 1582"><g id="Group_1581" data-name="Group 1581"><path id="Path_2389" data-name="Path 2389" class="cls-4" d="M10.4,29.44c0,.7-.45,1.36-2,1.36s-2-.66-2-1.36V26.36c0-.7.45-1.36,2-1.36s2,.66,2,1.36v.4c0,.15-.05.21-.2.21H9.51c-.15,0-.21-.06-.21-.21v-.2c0-.42-.29-.63-.85-.63s-.84.21-.84.63v2.68c0,.42.29.63.84.63s.85-.21.85-.63v-.32c0-.15.06-.21.21-.21h.69c.15,0,.2.06.2.21Z" transform="translate(-2.35 -2.5)"/><path id="Path_2390" data-name="Path 2390" class="cls-4" d="M14.56,25.07c.15,0,.21.05.21.2v.52c0,.15-.06.21-.21.21H12.44v1.35h2c.15,0,.21,0,.21.2v.53c0,.15-.06.21-.21.21h-2v2.23c0,.15,0,.21-.2.21h-.73c-.15,0-.2-.06-.2-.21V25.29c0-.15,0-.22.2-.22Z" transform="translate(-2.35 -2.5)"/><path id="Path_2391" data-name="Path 2391" class="cls-4" d="M15.81,30.73c-.14,0-.18-.07-.18-.22V25.28c0-.15,0-.21.2-.21h1.82c1.51,0,2,.66,2,1.36v2.94c0,.7-.52,1.36-2,1.36Zm1-4.73v3.8h.89c.56,0,.91-.21.91-.62V26.63c0-.42-.34-.63-.91-.63Z" transform="translate(-2.35 -2.5)"/><path id="Path_2392" data-name="Path 2392" class="cls-4" d="M21.88,30.51c0,.15-.05.22-.2.22H21c-.15,0-.2-.07-.2-.22V25.28c0-.15,0-.21.2-.21h.72c.15,0,.2.06.2.21Z" transform="translate(-2.35 -2.5)"/><path id="Path_2393" data-name="Path 2393" class="cls-4" d="M24.34,28.37H23.16c-.14,0-.21-.06-.21-.21v-.49c0-.15.07-.2.21-.2h1.18V26.28c0-.15.05-.21.19-.21H25c.15,0,.2.06.2.21v1.19h1.19c.15,0,.22.05.22.2v.49c0,.15-.07.21-.22.21H25.24v1.17c0,.14-.06.21-.21.21h-.49c-.15,0-.2-.07-.2-.21Z" transform="translate(-2.35 -2.5)"/></g></g></g><g id="Group_1584" data-name="Group 1584"><path id="Path_2394" data-name="Path 2394" class="cls-7" d="M118.34,9.31a2.31,2.31,0,0,1-3.27,0,2.28,2.28,0,0,1-.66-1.62A2.18,2.18,0,0,1,115.14,6a2.25,2.25,0,0,1,1.58-.62A2.3,2.3,0,0,1,119,7.65a2.26,2.26,0,0,1-.69,1.66m-3-3a1.89,1.89,0,0,0-.55,1.34A1.84,1.84,0,0,0,115.37,9a1.92,1.92,0,0,0,3.26-1.36,1.94,1.94,0,0,0-.56-1.34,1.78,1.78,0,0,0-1.35-.57,1.8,1.8,0,0,0-1.36.57m.35,2.62V6.37H117a1.46,1.46,0,0,1,.5.12.64.64,0,0,1,.34.62.55.55,0,0,1-.18.47.9.9,0,0,1-.44.18.67.67,0,0,1,.36.14.7.7,0,0,1,.23.57v.23a.22.22,0,0,0,0,.08.25.25,0,0,0,0,.08l0,.06h-.64a2,2,0,0,1,0-.35,1.1,1.1,0,0,0,0-.31.3.3,0,0,0-.19-.19.45.45,0,0,0-.23,0h-.28v.9Zm1.22-2a1,1,0,0,0-.39,0h-.16v.74h.25a.61.61,0,0,0,.37-.1.33.33,0,0,0,.14-.3.28.28,0,0,0-.21-.29" transform="translate(-2.35 -2.5)"/><path id="Path_2395" data-name="Path 2395" class="cls-7" d="M69.12,11a4.22,4.22,0,0,1-1.69-.34,3,3,0,0,1-1.36-1.11,3.4,3.4,0,0,1-.54-2,4.72,4.72,0,0,1,.35-1.85,3.92,3.92,0,0,1,.93-1.37,4,4,0,0,1,1.35-.82,4.66,4.66,0,0,1,1.61-.28,3.9,3.9,0,0,1,1.8.42,3,3,0,0,1,1.25,1.19,3.61,3.61,0,0,1,.45,1.82A5.25,5.25,0,0,1,73,8.38a4.12,4.12,0,0,1-.84,1.37,3.93,3.93,0,0,1-1.31.9,4.37,4.37,0,0,1-1.71.32m.56-6.2a2.1,2.1,0,0,0-1.28.41,2.61,2.61,0,0,0-.82,1,3,3,0,0,0-.27,1.24,2.05,2.05,0,0,0,.49,1.4,1.65,1.65,0,0,0,1.35.58,2.2,2.2,0,0,0,1-.21,2.39,2.39,0,0,0,.74-.6,2.68,2.68,0,0,0,.47-.86,3.17,3.17,0,0,0,.15-1,2.4,2.4,0,0,0-.22-1.06,1.71,1.71,0,0,0-1.59-1" transform="translate(-2.35 -2.5)"/><path id="Path_2396" data-name="Path 2396" class="cls-7" d="M83.77,10.9l.91-6.11H82.19L82.31,4h0V4A.73.73,0,0,1,83,3.32h6.09L89,4.17h0a.73.73,0,0,1-.72.61H86.38l-.9,6.11Z" transform="translate(-2.35 -2.5)"/><path id="Path_2397" data-name="Path 2397" class="cls-7" d="M94.32,4a2.73,2.73,0,0,0-2-.64H89.89l-1.1,7.58h.93a.87.87,0,0,0,.87-.76h0l.3-2h1.39a3.09,3.09,0,0,0,1.51-.36,2.2,2.2,0,0,0,.87-.92,2.87,2.87,0,0,0,.28-1.26A2.25,2.25,0,0,0,94.32,4M93.14,5.66A1.46,1.46,0,0,1,91.88,7h-.83l.39-2.59a2.72,2.72,0,0,1,.7,0c.46,0,1.09.18,1,1.25" transform="translate(-2.35 -2.5)"/><path id="Path_2398" data-name="Path 2398" class="cls-7" d="M80,3.31l-.72,4.9L77.08,4.73a2.77,2.77,0,0,0-2.42-1.42h-.1l-1.13,7.58h1.72L75.87,6,78,9.47a2.77,2.77,0,0,0,2.43,1.42h.1l1.12-7.58Zm-.72,4.9Z" transform="translate(-2.35 -2.5)"/><path id="Path_2399" data-name="Path 2399" class="cls-7" d="M99.12,3.32h-.58a2.12,2.12,0,0,0-1.85,1.09l-.06.1,0,0L93.36,10.9h1.78L96,9.16h2.47l.21,1.74h1.84ZM96.5,8.09l1.46-3,.41,3Z" transform="translate(-2.35 -2.5)"/><path id="Path_2400" data-name="Path 2400" class="cls-7" d="M108.14,9.28l-.23-.23a5.79,5.79,0,0,0,.31-.67,5,5,0,0,0,.29-1.71,3.61,3.61,0,0,0-.45-1.82,3,3,0,0,0-1.25-1.19,3.87,3.87,0,0,0-1.8-.42,4.61,4.61,0,0,0-1.6.28,4,4,0,0,0-1.35.82,3.82,3.82,0,0,0-.94,1.37,4.89,4.89,0,0,0-.34,1.85,3.39,3.39,0,0,0,.53,2,3.14,3.14,0,0,0,1.36,1.11,4.47,4.47,0,0,0,1.69.34,4.41,4.41,0,0,0,1.72-.32c.17-.07.33-.16.5-.25l.22.22a1,1,0,0,0,.68.28h.94V10h0a1,1,0,0,0-.27-.67m-3.76.16A1.67,1.67,0,0,1,103,8.86a2.08,2.08,0,0,1-.49-1.4,3,3,0,0,1,.28-1.24,2.5,2.5,0,0,1,.81-1,2.1,2.1,0,0,1,1.28-.41,1.7,1.7,0,0,1,1.58,1,2.28,2.28,0,0,1,.23,1.06,3.17,3.17,0,0,1-.15,1,2.68,2.68,0,0,1-.47.86,2.31,2.31,0,0,1-.75.6,2.15,2.15,0,0,1-1,.21" transform="translate(-2.35 -2.5)"/><path id="Path_2401" data-name="Path 2401" class="cls-7" d="M64.88,5s-2.46-.77-3.65.39-1.22,3,.09,3.72a3.92,3.92,0,0,0,3.55-.45,2.21,2.21,0,0,1-.16,1.43c-.35.73-2.39,1.15-4,.59a3.21,3.21,0,0,1-2.17-3.6,4.09,4.09,0,0,1,3.28-3.7,8.54,8.54,0,0,1,3.86.17Z" transform="translate(-2.35 -2.5)"/><path id="Path_2402" data-name="Path 2402" class="cls-7" d="M113.24,5.34H112a1,1,0,0,0-1,.8l-.72,4.76h0a3.63,3.63,0,0,0,1.37-1.18,6.72,6.72,0,0,0,1.3-2.28Z" transform="translate(-2.35 -2.5)"/><path id="Path_2403" data-name="Path 2403" class="cls-7" d="M112.41,4.66a1.08,1.08,0,1,0-1.08-1.08,1.08,1.08,0,0,0,1.08,1.08h0" transform="translate(-2.35 -2.5)"/><path id="Path_2404" data-name="Path 2404" class="cls-8" d="M111.63,9.72a3.51,3.51,0,0,1-1.38,1.18h1.3a1,1,0,0,0,1-.79l.38-2.67a6.72,6.72,0,0,1-1.3,2.28" transform="translate(-2.35 -2.5)"/></g><g id="Group_1585" data-name="Group 1585"><path id="Path_2405" data-name="Path 2405" class="cls-2" d="M58.27,20.49c0-2.53,1.88-4.14,4.48-4.14s4.44,1.52,4.44,3.59v.64H65.8V20.2c0-1.54-1.25-2.53-3-2.53a2.84,2.84,0,0,0-3.06,2.6,2.57,2.57,0,0,0,0,.48v5a2.84,2.84,0,0,0,2.58,3.08,3.84,3.84,0,0,0,.48,0c1.8,0,3-1,3-2.53v-.57h1.39v.84c0,2.07-1.84,3.59-4.44,3.59S58.27,28.55,58.27,26Z" transform="translate(-2.35 -2.5)"/><path id="Path_2406" data-name="Path 2406" class="cls-2" d="M69.12,16.62h7.69v1.32H70.55v4.95h5.24V24.2H70.55v5.7H69.12Z" transform="translate(-2.35 -2.5)"/><path id="Path_2407" data-name="Path 2407" class="cls-2" d="M78.14,16.62h4.79a3.87,3.87,0,0,1,4.2,3.53,4,4,0,0,1,0,.6v5a3.86,3.86,0,0,1-4.21,4.13H78.14Zm4.79,12c1.8,0,2.79-1.08,2.79-3.07V21c0-2-1-3.06-2.79-3.06H79.57V28.59Z" transform="translate(-2.35 -2.5)"/><path id="Path_2408" data-name="Path 2408" class="cls-2" d="M89.13,16.62h1.43V29.9H89.14Z" transform="translate(-2.35 -2.5)"/><path id="Path_2409" data-name="Path 2409" class="cls-2" d="M97.89,16.62h7.68v1.32H99.31v4.95h5.24V24.2H99.31v5.7H97.89Z" transform="translate(-2.35 -2.5)"/><path id="Path_2410" data-name="Path 2410" class="cls-2" d="M106.68,22.86c0-2.41,1.23-3.78,3.6-3.78a4.49,4.49,0,0,1,3,1.35l.1-1.16h1.2V29.9h-1.2l-.1-1.16a4.32,4.32,0,0,1-3,1.35c-2.37,0-3.6-1.36-3.6-3.77ZM108,26.07c0,1.82.65,2.81,2.36,2.81a4,4,0,0,0,2.86-1.52V21.82a4,4,0,0,0-2.86-1.52c-1.71,0-2.36,1-2.36,2.81Z" transform="translate(-2.35 -2.5)"/><path id="Path_2411" data-name="Path 2411" class="cls-2" d="M117,23a3.65,3.65,0,0,1,3.39-3.89,4.14,4.14,0,0,1,.61,0c2.53,0,4,1.4,4,3.29v.3h-1.31v-.12c0-1.33-.76-2.26-2.64-2.26-1.71,0-2.66,1-2.66,2.89V26c0,1.9.95,2.88,2.66,2.88,1.88,0,2.64-.94,2.64-2.27v-.12h1.31v.3c0,1.82-1.42,3.3-4,3.3a3.64,3.64,0,0,1-4-3.26,3.11,3.11,0,0,1,0-.61Z" transform="translate(-2.35 -2.5)"/><path id="Path_2412" data-name="Path 2412" class="cls-2" d="M127.22,20.47H126v-1.2h1.22l.15-2.66h1.2v2.66h3.36v1.2h-3.36v6c0,1.7.7,2.5,2.26,2.5a5.11,5.11,0,0,0,1.5-.19v1.12a5.48,5.48,0,0,1-1.5.25c-2.32,0-3.61-1.08-3.61-3.49Z" transform="translate(-2.35 -2.5)"/><path id="Path_2413" data-name="Path 2413" class="cls-2" d="M133.58,19.27h1.35v7c0,1.82.4,2.62,2.14,2.62a3.93,3.93,0,0,0,2.85-1.52V19.27h1.35V29.9h-1.2l-.1-1.16a4.41,4.41,0,0,1-3.05,1.35c-2.45,0-3.34-1.17-3.34-3.59Z" transform="translate(-2.35 -2.5)"/><path id="Path_2414" data-name="Path 2414" class="cls-2" d="M143.73,19.27h1.18L145,20.6a3.8,3.8,0,0,1,2.9-1.52H148v1.26h-.21A3.36,3.36,0,0,0,145.08,22V29.9h-1.35Z" transform="translate(-2.35 -2.5)"/><path id="Path_2415" data-name="Path 2415" class="cls-2" d="M149.28,22.86c0-2.41,1.23-3.78,3.6-3.78a4.45,4.45,0,0,1,3,1.35l.1-1.16h1.2V29.9H156l-.1-1.16a4.32,4.32,0,0,1-3,1.35c-2.37,0-3.6-1.36-3.6-3.77Zm1.34,3.21c0,1.82.65,2.81,2.36,2.81a4,4,0,0,0,2.87-1.52V21.82A4,4,0,0,0,153,20.3c-1.71,0-2.36,1-2.36,2.81Z" transform="translate(-2.35 -2.5)"/><path id="Path_2416" data-name="Path 2416" class="cls-2" d="M159.55,23a3.66,3.66,0,0,1,3.4-3.89,4.14,4.14,0,0,1,.61,0c2.52,0,3.95,1.4,3.95,3.29v.3h-1.32v-.12c0-1.33-.76-2.26-2.64-2.26-1.71,0-2.65,1-2.65,2.89V26c0,1.9.95,2.88,2.65,2.88,1.88,0,2.64-.94,2.64-2.27v-.12h1.31v.3c0,1.82-1.42,3.3-3.95,3.3a3.65,3.65,0,0,1-4-3.26,3.11,3.11,0,0,1,0-.61Z" transform="translate(-2.35 -2.5)"/><path id="Path_2417" data-name="Path 2417" class="cls-2" d="M169.82,20.47l-1.2-.12V19.27h2.54V29.9h-1.34Zm-.23-3.78c0-.7.34-1,.85-1s.92.32.92,1a.86.86,0,0,1-.72,1h-.2C169.93,17.66,169.59,17.36,169.59,16.69Z" transform="translate(-2.35 -2.5)"/><path id="Path_2418" data-name="Path 2418" class="cls-2" d="M173.52,23a4,4,0,0,1,8,0v3.26a4,4,0,0,1-8,0Zm1.35,3c0,1.9.95,2.89,2.66,2.89s2.65-1,2.65-2.89v-2.8c0-1.9-1-2.89-2.65-2.89s-2.66,1-2.66,2.89Zm3.45-10.1h1.62l-1.77,2.32h-1.31Z" transform="translate(-2.35 -2.5)"/><path id="Path_2419" data-name="Path 2419" class="cls-2" d="M183.89,19.27h1.2l.09,1.16a4.18,4.18,0,0,1,2.94-1.35c2.38,0,3.53,1.18,3.53,3.59V29.9h-1.34v-7c0-1.83-.57-2.62-2.28-2.62a3.77,3.77,0,0,0-2.79,1.52V29.9h-1.35Z" transform="translate(-2.35 -2.5)"/><path id="Path_2420" data-name="Path 2420" class="cls-2" d="M58.44,40.36a4,4,0,0,1,8,0v1.93H59.78v1.1c0,1.9.95,2.89,2.66,2.89,1.88,0,2.64-1.1,2.64-2.28v-.11h1.31v.3c0,1.67-1.42,3.3-4,3.3a3.65,3.65,0,0,1-4-3.27,2.48,2.48,0,0,1,0-.61Zm6.66.74v-.52c0-1.9-.95-2.88-2.66-2.88s-2.66,1-2.66,2.88v.52Z" transform="translate(-2.35 -2.5)"/><path id="Path_2421" data-name="Path 2421" class="cls-2" d="M68.76,36.67H70l.1,1.16A4.17,4.17,0,0,1,73,36.49c2.37,0,3.53,1.17,3.53,3.58v7.24H75.18v-7c0-1.82-.56-2.62-2.27-2.62a3.77,3.77,0,0,0-2.79,1.52v8.09H68.77Z" transform="translate(-2.35 -2.5)"/><path id="Path_2422" data-name="Path 2422" class="cls-2" d="M84.2,33.07h1.35V45.31c0,.54.07.88.7.88a2.49,2.49,0,0,0,.47,0v1a6.73,6.73,0,0,1-1.1.12c-1,0-1.42-.44-1.42-1.5Z" transform="translate(-2.35 -2.5)"/><path id="Path_2423" data-name="Path 2423" class="cls-2" d="M88,37.87l-1.2-.11V36.67h2.55V47.31H88ZM89.1,33.3h1.61l-1.77,2.31h-1.3Z" transform="translate(-2.35 -2.5)"/><path id="Path_2424" data-name="Path 2424" class="cls-2" d="M91.83,36.67H93l.09,1.16a4.19,4.19,0,0,1,2.95-1.34c2.37,0,3.53,1.17,3.53,3.58v7.24H98.25v-7c0-1.82-.57-2.62-2.28-2.62a3.77,3.77,0,0,0-2.79,1.52v8.09H91.83Z" transform="translate(-2.35 -2.5)"/><path id="Path_2425" data-name="Path 2425" class="cls-2" d="M101.91,40.36a4,4,0,0,1,8,0v1.93h-6.66v1.1c0,1.9.95,2.89,2.66,2.89,1.87,0,2.63-1.1,2.63-2.28v-.11h1.31v.3c0,1.67-1.42,3.3-3.94,3.3a3.65,3.65,0,0,1-4-3.26,4.28,4.28,0,0,1,0-.62Zm6.66.74v-.52c0-1.9-.95-2.88-2.65-2.88s-2.66,1-2.66,2.88v.52Z" transform="translate(-2.35 -2.5)"/><path id="Path_2426" data-name="Path 2426" class="cls-2" d="M112.12,40.26c0-2.41,1.24-3.77,3.61-3.77a4.44,4.44,0,0,1,3,1.34l.09-1.16H120V47.31h-1.2l-.09-1.16a4.35,4.35,0,0,1-3,1.34c-2.37,0-3.61-1.36-3.61-3.77Zm1.35,3.21c0,1.82.65,2.81,2.36,2.81a4,4,0,0,0,2.86-1.52V39.22a4.08,4.08,0,0,0-2.86-1.52c-1.71,0-2.36,1-2.36,2.81Z" transform="translate(-2.35 -2.5)"/><path id="Path_2427" data-name="Path 2427" class="cls-2" d="M126.08,42.2h-4V40.91h4V36.62h1.29v4.29h3.95V42.2h-3.95v4.29h-1.29Z" transform="translate(-2.35 -2.5)"/></g></svg>