<svg id="Layer_1" data-name="Layer 1" xmlns="http://www.w3.org/2000/svg" viewBox="0 0 142.29 44.99"><defs><style>.cls-1{fill:#004cac;}.cls-2{fill:#00b5f1;}.cls-3{fill:#0b938a;}.cls-4{fill:#005e5c;}.cls-5{fill:#2d80c9;}.cls-6{fill:#3ab3a5;}.cls-7{fill:#fff;}.cls-8{fill:#003c3b;}</style></defs><g id="Group_1573" data-name="Group 1573"><path id="Path_2349" data-name="Path 2349" class="cls-1" d="M136.22,9.22a2.28,2.28,0,0,1-3.22,0,2.3,2.3,0,0,1-.65-1.61,2.15,2.15,0,0,1,.72-1.66,2.26,2.26,0,0,1,1.56-.62,2.3,2.3,0,0,1,2.28,2.28,2.21,2.21,0,0,1-.69,1.64m-2.93-3a1.9,1.9,0,0,0,0,2.66,1.86,1.86,0,0,0,2.65,0,1.78,1.78,0,0,0,.56-1.34A1.86,1.86,0,0,0,136,6.26a1.76,1.76,0,0,0-1.33-.56,1.78,1.78,0,0,0-1.34.56m.34,2.59V6.32h1.22a1.36,1.36,0,0,1,.5.12.65.65,0,0,1,.34.61.52.52,0,0,1-.18.46.83.83,0,0,1-.43.18.62.62,0,0,1,.58.71v.22a.15.15,0,0,0,0,.07.19.19,0,0,0,0,.08l0,.07h-.64c0-.12,0-.23,0-.35a1.1,1.1,0,0,0,0-.31.32.32,0,0,0-.18-.18.45.45,0,0,0-.23,0h-.28v.89Zm1.21-2a.89.89,0,0,0-.39-.06h-.16v.74h.26a.58.58,0,0,0,.36-.1.33.33,0,0,0,.14-.3.3.3,0,0,0-.21-.29" transform="translate(-21.86 -2.5)"/><path id="Path_2350" data-name="Path 2350" class="cls-1" d="M87.69,10.86A4.19,4.19,0,0,1,86,10.52a3,3,0,0,1-1.34-1.1,3.26,3.26,0,0,1-.52-1.92,4.83,4.83,0,0,1,.33-1.84,4,4,0,0,1,.93-1.34,3.87,3.87,0,0,1,1.33-.81,4.27,4.27,0,0,1,1.58-.27,3.78,3.78,0,0,1,1.78.41,3,3,0,0,1,1.23,1.17,3.53,3.53,0,0,1,.44,1.8,4.84,4.84,0,0,1-.28,1.69,3.86,3.86,0,0,1-.83,1.35,3.73,3.73,0,0,1-1.29.89,4.45,4.45,0,0,1-1.69.32m.56-6.12A2.07,2.07,0,0,0,87,5.16a2.59,2.59,0,0,0-.8,1,2.93,2.93,0,0,0-.27,1.23,2.11,2.11,0,0,0,.48,1.38,1.71,1.71,0,0,0,1.34.57,2.2,2.2,0,0,0,1-.21,2.38,2.38,0,0,0,.74-.59,2.69,2.69,0,0,0,.46-.85,3.09,3.09,0,0,0,.15-1,2.33,2.33,0,0,0-.22-1,1.7,1.7,0,0,0-1.56-1" transform="translate(-21.86 -2.5)"/><path id="Path_2351" data-name="Path 2351" class="cls-1" d="M102.14,10.79l.9-6h-2.46L100.7,4h0V4a.71.71,0,0,1,.71-.64h6l-.12.83v0a.73.73,0,0,1-.71.6h-1.86l-.89,6Z" transform="translate(-21.86 -2.5)"/><path id="Path_2352" data-name="Path 2352" class="cls-1" d="M112.54,3.94a2.66,2.66,0,0,0-2-.62h-2.4l-1.09,7.47H108a.87.87,0,0,0,.86-.75v0l.29-2h1.36A3,3,0,0,0,112,7.7a2.17,2.17,0,0,0,.85-.9,2.81,2.81,0,0,0,.28-1.24,2.26,2.26,0,0,0-.6-1.61m-1.18,1.67A1.42,1.42,0,0,1,110.13,7h-.82l.38-2.55a3.29,3.29,0,0,1,.7,0c.45,0,1.08.18,1,1.23" transform="translate(-21.86 -2.5)"/><path id="Path_2353" data-name="Path 2353" class="cls-1" d="M98.38,3.31l-.7,4.83L95.55,4.71a2.72,2.72,0,0,0-2.4-1.4h-.1L92,10.79h1.68L94.35,6l2.13,3.44a2.75,2.75,0,0,0,2.4,1.4H99l1.1-7.48Zm-.7,4.83Z" transform="translate(-21.86 -2.5)"/><path id="Path_2354" data-name="Path 2354" class="cls-1" d="M117.28,3.32h-.58a2.08,2.08,0,0,0-1.82,1.07l-.07.1,0,0-3.2,6.25h1.76l.83-1.72h2.44l.2,1.72h1.82ZM114.69,8l1.44-3,.4,3Z" transform="translate(-21.86 -2.5)"/><path id="Path_2355" data-name="Path 2355" class="cls-1" d="M126.17,9.19,125.94,9a5,5,0,0,0,.31-.66,5.06,5.06,0,0,0,.28-1.68,3.64,3.64,0,0,0-.44-1.8,3,3,0,0,0-1.23-1.17,3.78,3.78,0,0,0-1.78-.41,4.73,4.73,0,0,0-1.58.27,4,4,0,0,0-1.33.81,3.78,3.78,0,0,0-.92,1.35,4.58,4.58,0,0,0-.34,1.83,3.29,3.29,0,0,0,.52,1.93,3,3,0,0,0,1.34,1.09,4.19,4.19,0,0,0,1.67.34,4.44,4.44,0,0,0,1.69-.31,4.52,4.52,0,0,0,.49-.25l.23.22a.94.94,0,0,0,.66.27h.94V9.86h0a.91.91,0,0,0-.28-.66m-3.7.16a1.65,1.65,0,0,1-1.33-.58,2,2,0,0,1-.48-1.37,2.87,2.87,0,0,1,.27-1.23,2.44,2.44,0,0,1,.8-1A2,2,0,0,1,123,4.75a1.69,1.69,0,0,1,1.56,1,2.39,2.39,0,0,1,.22,1,3.11,3.11,0,0,1-.15,1,2.37,2.37,0,0,1-.46.84,2.13,2.13,0,0,1-.74.59,2.07,2.07,0,0,1-1,.22" transform="translate(-21.86 -2.5)"/><path id="Path_2356" data-name="Path 2356" class="cls-1" d="M83.52,5s-2.44-.75-3.61.39-1.2,3,.09,3.66a3.88,3.88,0,0,0,3.51-.44A2.21,2.21,0,0,1,83.34,10c-.34.72-2.35,1.14-4,.58a3.16,3.16,0,0,1-2.14-3.55,4,4,0,0,1,3.23-3.66,8.41,8.41,0,0,1,3.8.18Z" transform="translate(-21.86 -2.5)"/><path id="Path_2357" data-name="Path 2357" class="cls-1" d="M131.2,5.31h-1.27a1,1,0,0,0-1,.79l-.7,4.69h0a3.47,3.47,0,0,0,1.36-1.16,6.71,6.71,0,0,0,1.28-2.25Z" transform="translate(-21.86 -2.5)"/><path id="Path_2358" data-name="Path 2358" class="cls-1" d="M130.38,4.63a1.07,1.07,0,0,0,0-2.13,1.07,1.07,0,0,0-1.07,1.07h0a1.06,1.06,0,0,0,1.07,1.06h0" transform="translate(-21.86 -2.5)"/><path id="Path_2359" data-name="Path 2359" class="cls-2" d="M129.61,9.62a3.42,3.42,0,0,1-1.36,1.17h1.28a1,1,0,0,0,1-.78l.38-2.63a6.57,6.57,0,0,1-1.28,2.24" transform="translate(-21.86 -2.5)"/></g><g id="Group_1574" data-name="Group 1574"><path id="Path_2360" data-name="Path 2360" class="cls-3" d="M77.09,15.94h7.58v1.31H78.49v4.89h5.17v1.29H78.49V29h-1.4Z" transform="translate(-21.86 -2.5)"/><path id="Path_2361" data-name="Path 2361" class="cls-3" d="M85.75,22.1c0-2.38,1.22-3.73,3.56-3.73a4.42,4.42,0,0,1,3,1.33l.09-1.14h1.18V29.05H92.38l-.09-1.15a4.27,4.27,0,0,1-3,1.33c-2.34,0-3.56-1.35-3.56-3.72Zm1.33,3.16c0,1.8.64,2.77,2.32,2.77a3.88,3.88,0,0,0,2.83-1.5V21.07a4,4,0,0,0-2.83-1.5c-1.68,0-2.32,1-2.32,2.77Z" transform="translate(-21.86 -2.5)"/><path id="Path_2362" data-name="Path 2362" class="cls-3" d="M95.88,22.19a3.6,3.6,0,0,1,3.35-3.83,4,4,0,0,1,.6,0c2.49,0,3.89,1.39,3.89,3.24v.3h-1.29V21.8c0-1.31-.75-2.23-2.6-2.23-1.69,0-2.62,1-2.62,2.85v2.77c0,1.87.93,2.84,2.62,2.84,1.85,0,2.6-.93,2.6-2.24v-.12h1.29V26c0,1.8-1.4,3.26-3.9,3.26A3.61,3.61,0,0,1,95.88,26a3.85,3.85,0,0,1,0-.59Z" transform="translate(-21.86 -2.5)"/><path id="Path_2363" data-name="Path 2363" class="cls-3" d="M106,19.74h-1.2V18.56H106l.15-2.62h1.17v2.62h3.32v1.18h-3.32v5.93c0,1.69.7,2.47,2.23,2.47A5.27,5.27,0,0,0,111,28v1.1a5.72,5.72,0,0,1-1.48.24c-2.28,0-3.55-1.07-3.55-3.45Z" transform="translate(-21.86 -2.5)"/><path id="Path_2364" data-name="Path 2364" class="cls-3" d="M112.28,18.56h1.33v6.89c0,1.8.39,2.58,2.11,2.58a3.86,3.86,0,0,0,2.81-1.5v-8h1.33V29h-1.18l-.1-1.14a4.38,4.38,0,0,1-3,1.33c-2.41,0-3.29-1.16-3.29-3.54Z" transform="translate(-21.86 -2.5)"/><path id="Path_2365" data-name="Path 2365" class="cls-3" d="M122.29,18.56h1.16l.11,1.31a3.71,3.71,0,0,1,2.87-1.5h.11v1.24h-.21a3.34,3.34,0,0,0-2.71,1.62V29h-1.33Z" transform="translate(-21.86 -2.5)"/><path id="Path_2366" data-name="Path 2366" class="cls-3" d="M127.76,22.1c0-2.38,1.21-3.73,3.55-3.73a4.42,4.42,0,0,1,3,1.33l.09-1.14h1.18V29.05h-1.18l-.09-1.15a4.27,4.27,0,0,1-3,1.33c-2.34,0-3.55-1.35-3.55-3.72Zm1.33,3.16c0,1.8.63,2.77,2.32,2.77a3.88,3.88,0,0,0,2.82-1.5V21.07a4,4,0,0,0-2.82-1.5c-1.69,0-2.32,1-2.32,2.77Z" transform="translate(-21.86 -2.5)"/><path id="Path_2367" data-name="Path 2367" class="cls-3" d="M77.16,40.39a4,4,0,0,1,7.9,0V42.3H78.49v1.09c0,1.87.94,2.84,2.62,2.84,1.86,0,2.6-1.08,2.6-2.24v-.12H85v.3c0,1.65-1.4,3.26-3.89,3.26a3.6,3.6,0,0,1-3.94-3.22,3,3,0,0,1,0-.6Zm6.57.73v-.5c0-1.87-.94-2.84-2.62-2.84s-2.62,1-2.62,2.84v.5Z" transform="translate(-21.86 -2.5)"/><path id="Path_2368" data-name="Path 2368" class="cls-3" d="M87.34,33.2h1.33V45.28c0,.52.08.86.7.86a2.38,2.38,0,0,0,.46,0v1a5.65,5.65,0,0,1-1.08.11c-.94,0-1.4-.43-1.4-1.48Z" transform="translate(-21.86 -2.5)"/><path id="Path_2369" data-name="Path 2369" class="cls-3" d="M91,40.39a4,4,0,0,1,7.9,0V42.3H92.33v1.09c0,1.87.93,2.84,2.62,2.84,1.85,0,2.6-1.08,2.6-2.24v-.12h1.29v.3c0,1.65-1.4,3.26-3.89,3.26A3.6,3.6,0,0,1,91,44.2a2.9,2.9,0,0,1,0-.59Zm6.57.73v-.5c0-1.87-.93-2.84-2.62-2.84s-2.62,1-2.62,2.84v.5Z" transform="translate(-21.86 -2.5)"/><path id="Path_2370" data-name="Path 2370" class="cls-3" d="M101.06,40.39a3.61,3.61,0,0,1,3.36-3.83,3.85,3.85,0,0,1,.59,0c2.49,0,3.9,1.39,3.9,3.24v.3h-1.3V40c0-1.31-.75-2.23-2.6-2.23-1.68,0-2.62,1-2.62,2.85v2.77c0,1.87.94,2.84,2.62,2.84,1.86,0,2.6-.94,2.6-2.25v-.11h1.3v.3c0,1.8-1.4,3.26-3.9,3.26a3.6,3.6,0,0,1-3.94-3.23,3.85,3.85,0,0,1,0-.59Z" transform="translate(-21.86 -2.5)"/><path id="Path_2371" data-name="Path 2371" class="cls-3" d="M111.19,37.94H110V36.76h1.2l.15-2.62h1.18v2.62h3.31v1.18h-3.31v5.93c0,1.69.69,2.47,2.22,2.47a4.93,4.93,0,0,0,1.48-.19v1.1a5.28,5.28,0,0,1-1.48.25c-2.28,0-3.55-1.07-3.55-3.45Z" transform="translate(-21.86 -2.5)"/><path id="Path_2372" data-name="Path 2372" class="cls-3" d="M117.5,36.76h1.16l.11,1.31a3.69,3.69,0,0,1,2.86-1.5h.11v1.24h-.2a3.36,3.36,0,0,0-2.72,1.62v7.8H117.5Z" transform="translate(-21.86 -2.5)"/><path id="Path_2373" data-name="Path 2373" class="cls-3" d="M122.4,40.39a4,4,0,0,1,7.9,0v3.22a4,4,0,0,1-7.9,0Zm1.33,3c0,1.88.94,2.85,2.62,2.85s2.62-1,2.62-2.85V40.61c0-1.87-.93-2.84-2.62-2.84s-2.62,1-2.62,2.84Zm3.41-10h1.59L127,35.71H125.7Z" transform="translate(-21.86 -2.5)"/><path id="Path_2374" data-name="Path 2374" class="cls-3" d="M132.62,36.76h1.18l.1,1.14a4.13,4.13,0,0,1,2.9-1.33c2.33,0,3.48,1.16,3.48,3.54v7.13H139V40.35c0-1.8-.56-2.58-2.25-2.58a3.72,3.72,0,0,0-2.75,1.5v8h-1.33Z" transform="translate(-21.86 -2.5)"/><path id="Path_2375" data-name="Path 2375" class="cls-3" d="M142.67,37.94l-1.17-.11V36.76H144V47.24h-1.33Zm-.22-3.73c0-.69.34-1,.84-1s.9.32.9,1a.82.82,0,0,1-.7.95.67.67,0,0,1-.2,0c-.5,0-.84-.3-.84-1Z" transform="translate(-21.86 -2.5)"/><path id="Path_2376" data-name="Path 2376" class="cls-3" d="M146.32,40.39a3.61,3.61,0,0,1,3.36-3.83,3.85,3.85,0,0,1,.59,0c2.49,0,3.9,1.39,3.9,3.24v.3h-1.29V40c0-1.31-.75-2.23-2.6-2.23-1.69,0-2.63,1-2.63,2.85v2.77c0,1.87.94,2.84,2.63,2.84,1.85,0,2.6-.94,2.6-2.25v-.11h1.29v.3c0,1.8-1.4,3.26-3.9,3.26a3.61,3.61,0,0,1-3.94-3.22,4,4,0,0,1,0-.6Z" transform="translate(-21.86 -2.5)"/><path id="Path_2377" data-name="Path 2377" class="cls-3" d="M156.34,40.3c0-2.38,1.22-3.73,3.56-3.73a4.4,4.4,0,0,1,3,1.33l.09-1.14h1.18V47.24H163l-.09-1.14a4.27,4.27,0,0,1-3,1.33c-2.34,0-3.56-1.35-3.56-3.72Zm1.33,3.16c0,1.8.63,2.77,2.32,2.77a3.92,3.92,0,0,0,2.83-1.5V39.27a4,4,0,0,0-2.83-1.5c-1.69,0-2.32,1-2.32,2.77Z" transform="translate(-21.86 -2.5)"/></g><g id="Group_1577" data-name="Group 1577"><path id="Path_2378" data-name="Path 2378" class="cls-4" d="M25.53,40.12H37.15V6.94H29.2v29.5Z" transform="translate(-21.86 -2.5)"/><g id="Group_1575" data-name="Group 1575"><path id="Rectangle_1585" data-name="Rectangle 1585" class="cls-5" d="M36.56,32.75H66v6.06a8.67,8.67,0,0,1-8.67,8.67H45.23a8.67,8.67,0,0,1-8.67-8.67V32.75Z" transform="translate(-21.86 -2.5)"/><path id="Rectangle_1586" data-name="Rectangle 1586" class="cls-3" d="M36.56,32.75H66v6.06a8.67,8.67,0,0,1-8.67,8.67H45.23a8.67,8.67,0,0,1-8.67-8.67V32.75Z" transform="translate(-21.86 -2.5)"/><path id="Path_2379" data-name="Path 2379" class="cls-6" d="M56.15,3.27H42.83c-.61,0-6.27,8.56-6.27,9.22V32.75H66V13.16Z" transform="translate(-21.86 -2.5)"/><path id="Path_2380" data-name="Path 2380" class="cls-6" d="M61.55,3.27h-25V18H66v-.15l0-10.07a4.5,4.5,0,0,0-4.5-4.52Z" transform="translate(-21.86 -2.5)"/></g><g id="Group_1576" data-name="Group 1576"><path id="Rectangle_1587" data-name="Rectangle 1587" class="cls-6" d="M29.2,18.09h0V36.44H21.86v-11a7.34,7.34,0,0,1,7.34-7.34Z" transform="translate(-21.86 -2.5)"/><path id="Path_2381" data-name="Path 2381" class="cls-6" d="M39.89,7.06H32.71l.17-3.79h7Z" transform="translate(-21.86 -2.5)"/><circle id="Ellipse_133" data-name="Ellipse 133" class="cls-6" cx="3.67" cy="33.94" r="3.67"/><path id="Rectangle_1588" data-name="Rectangle 1588" class="cls-7" d="M42.3,9.47h0a.9.9,0,0,1,.9.9h0a.9.9,0,0,1-.9.9h0a.9.9,0,0,1-.9-.9h0A.9.9,0,0,1,42.3,9.47Z" transform="translate(-21.86 -2.5)"/><path id="Path_2382" data-name="Path 2382" class="cls-8" d="M66,32.75h-3.7L56,40.47l-2.18-2.08a1.6,1.6,0,0,0-2.24.24,1.62,1.62,0,0,0-.13,2.27l3.33,3.17a1.37,1.37,0,0,0,1.16.35h0a2,2,0,0,0,1.16-.69l9-10.86Z" transform="translate(-21.86 -2.5)"/><path id="Path_2383" data-name="Path 2383" class="cls-7" d="M55.94,42.74h0a1.54,1.54,0,0,1-1.16-.53l-3.33-3.7a1.59,1.59,0,0,1,2.37-2.13L56,38.81,66.11,28.15a1.59,1.59,0,0,1,2.25-.09,1.6,1.6,0,0,1,.09,2.25l0,0L57.09,42.25A1.61,1.61,0,0,1,55.94,42.74Z" transform="translate(-21.86 -2.5)"/></g><rect id="Rectangle_1589" data-name="Rectangle 1589" class="cls-7" x="22.66" y="6.99" width="16.99" height="1.76" rx="0.88"/><path id="Rectangle_1590" data-name="Rectangle 1590" class="cls-7" d="M42.3,13.67h0a.9.9,0,0,1,.9.91h0a.9.9,0,0,1-.9.9h0a.9.9,0,0,1-.9-.9h0A.9.9,0,0,1,42.3,13.67Z" transform="translate(-21.86 -2.5)"/><rect id="Rectangle_1591" data-name="Rectangle 1591" class="cls-7" x="22.66" y="11.19" width="16.99" height="1.76" rx="0.88"/><path id="Rectangle_1592" data-name="Rectangle 1592" class="cls-7" d="M42.3,17.88h0a.9.9,0,0,1,.9.9h0a.9.9,0,0,1-.9.9h0a.9.9,0,0,1-.9-.9h0A.9.9,0,0,1,42.3,17.88Z" transform="translate(-21.86 -2.5)"/><rect id="Rectangle_1593" data-name="Rectangle 1593" class="cls-7" x="22.66" y="15.4" width="16.99" height="1.76" rx="0.88"/><path id="Rectangle_1594" data-name="Rectangle 1594" class="cls-7" d="M42.3,22.08h0a.9.9,0,0,1,.9.9h0a.9.9,0,0,1-.9.9h0a.9.9,0,0,1-.9-.9h0A.9.9,0,0,1,42.3,22.08Z" transform="translate(-21.86 -2.5)"/><rect id="Rectangle_1595" data-name="Rectangle 1595" class="cls-7" x="22.66" y="19.6" width="16.99" height="1.76" rx="0.88"/><path id="Rectangle_1596" data-name="Rectangle 1596" class="cls-7" d="M42.3,26.28h0a.9.9,0,0,1,.9.9h0a.9.9,0,0,1-.9.9h0a.9.9,0,0,1-.9-.9h0A.9.9,0,0,1,42.3,26.28Z" transform="translate(-21.86 -2.5)"/><rect id="Rectangle_1597" data-name="Rectangle 1597" class="cls-7" x="22.66" y="23.8" width="8.53" height="1.76" rx="0.88"/><circle id="Ellipse_134" data-name="Ellipse 134" class="cls-4" cx="11.02" cy="4.44" r="3.67"/></g></svg>