<svg id="Layer_1" data-name="Layer 1" xmlns="http://www.w3.org/2000/svg" xmlns:xlink="http://www.w3.org/1999/xlink" viewBox="0 0 120.05 93.96"><defs><style>.cls-1,.cls-2{isolation:isolate;}.cls-2{font-size:21px;fill:#009cde;font-family:Helvetica;}.cls-3{letter-spacing:-0.02em;}.cls-4{fill:url(#linear-gradient);}.cls-5{fill:url(#linear-gradient-2);}.cls-6{fill:#245fa9;}</style><linearGradient id="linear-gradient" x1="-2697.45" y1="1165.39" x2="-2696.45" y2="1165.39" gradientTransform="matrix(89.38, 0, 0, -41.73, 241178.21, 48668.12)" gradientUnits="userSpaceOnUse"><stop offset="0" stop-color="#005eb8"/><stop offset="0.12" stop-color="#075fb7"/><stop offset="0.3" stop-color="#1b63b7"/><stop offset="0.52" stop-color="#3b69b6"/><stop offset="0.77" stop-color="#6872b4"/><stop offset="1" stop-color="#9b7cb3"/></linearGradient><linearGradient id="linear-gradient-2" x1="-2647.94" y1="1164.88" x2="-2646.94" y2="1164.88" gradientTransform="matrix(32.69, 0, 0, -46.59, 86613.09, 54332.08)" gradientUnits="userSpaceOnUse"><stop offset="0" stop-color="#00c0f3"/><stop offset="1" stop-color="#005eb8"/></linearGradient></defs><g id="Group_1639" data-name="Group 1639"><g id="Group_1638" data-name="Group 1638"><g id="Escritorio_Virtual" data-name="Escritorio Virtual" class="cls-1"><text class="cls-2" transform="translate(30.46 62.87)">Escritorio</text><text class="cls-2" transform="translate(30.46 83.87)"><tspan class="cls-3">V</tspan><tspan x="13.64" y="0">irtual</tspan></text></g><g id="Group_1630" data-name="Group 1630"><path id="Path_2632" data-name="Path 2632" class="cls-4" d="M159.06,36a20.63,20.63,0,0,0-7.87,1.58,32.63,32.63,0,0,0-57.95,2.16,35.66,35.66,0,0,0-3,11.74l0,.71a8.66,8.66,0,0,1,4.24-2.54,31.47,31.47,0,0,1,2.49-8.2A28.75,28.75,0,0,1,122.78,25,28.44,28.44,0,0,1,148.5,41.13l.67,1.38.25.5.49-.27,1.35-.72a16.45,16.45,0,0,1,23.6,19l3.68,1.7A20.46,20.46,0,0,0,159.06,36Z" transform="translate(-59.48 -21.02)"/></g><g id="Group_1631" data-name="Group 1631"><path id="Path_2633" data-name="Path 2633" class="cls-5" d="M91.56,37.58a22.21,22.21,0,0,0-6.68-1c-12.69,0-24,10.37-25.25,23.11A21,21,0,0,0,78,83a19.86,19.86,0,0,0,2.88.15,23.91,23.91,0,0,0,7.5-1.23v-4.1l-.19.07a20.32,20.32,0,0,1-7.31,1.39,17.32,17.32,0,0,1-13-5.58,17.52,17.52,0,0,1-4.33-13.65c1.05-10.82,10.65-19.61,21.4-19.61a18.81,18.81,0,0,1,5.22.74l.47.14.18-.46c.38-1,.69-1.66.8-1.9l.18-.35.15-.29.28-.57Z" transform="translate(-59.48 -21.02)"/></g><g id="Group_1637" data-name="Group 1637"><path id="Path_2634" data-name="Path 2634" class="cls-6" d="M163.89,51.2a1.46,1.46,0,1,0,1.46,1.46h0a1.46,1.46,0,0,0-1.46-1.46Z" transform="translate(-59.48 -21.02)"/><g id="Group_1632" data-name="Group 1632"><path id="Path_2635" data-name="Path 2635" class="cls-6" d="M163.27,55a1.36,1.36,0,0,0-1.34,1.09l-1,6.42h1.77a1.36,1.36,0,0,0,1.34-1.07L165,55Zm.65,6.24a1.38,1.38,0,0,1-1.34,1.08h-1.3a8.24,8.24,0,0,0,3-3.67Z" transform="translate(-59.48 -21.02)"/></g><g id="Group_1636" data-name="Group 1636"><g id="Group_1633" data-name="Group 1633"><path id="Path_2636" data-name="Path 2636" class="cls-6" d="M167.51,56.69a1,1,0,0,1-1.65-.7.93.93,0,0,1,.31-.7,1,1,0,0,1,.66-.27,1,1,0,0,1,1,1A1,1,0,0,1,167.51,56.69Zm-1.25-1.26a.8.8,0,1,0,1.13,0h0a.8.8,0,0,0-1.12,0v0Zm.15,1.1V55.46h.52a.54.54,0,0,1,.21,0,.27.27,0,0,1,.14.26.22.22,0,0,1-.07.19A.36.36,0,0,1,167,56a.34.34,0,0,1,.15.06.28.28,0,0,1,.1.24v.19H167a.34.34,0,0,1,0-.14.68.68,0,0,0,0-.14.11.11,0,0,0-.08-.07.16.16,0,0,0-.1,0h-.12v.38Zm.51-.86a.3.3,0,0,0-.16,0h-.07V56h.11a.28.28,0,0,0,.15,0,.16.16,0,0,0,.06-.13.12.12,0,0,0-.09-.12Z" transform="translate(-59.48 -21.02)"/></g><g id="Group_1635" data-name="Group 1635"><g id="Group_1634" data-name="Group 1634"><path id="Path_2637" data-name="Path 2637" class="cls-6" d="M105.35,62.65a5.78,5.78,0,0,1-2.28-.47,4.21,4.21,0,0,1-1.84-1.5,4.56,4.56,0,0,1-.72-2.64,6.5,6.5,0,0,1,.46-2.51,5.37,5.37,0,0,1,1.27-1.85,5.45,5.45,0,0,1,1.83-1.11,6.15,6.15,0,0,1,2.17-.37,5.13,5.13,0,0,1,2.43.56,4.1,4.1,0,0,1,1.69,1.61,4.9,4.9,0,0,1,.6,2.46,6.49,6.49,0,0,1-.39,2.31A5.33,5.33,0,0,1,109.44,61a5.18,5.18,0,0,1-1.77,1.23A6.12,6.12,0,0,1,105.35,62.65Zm.76-8.39a2.84,2.84,0,0,0-1.73.56,3.58,3.58,0,0,0-1.1,1.4,4.12,4.12,0,0,0-.37,1.69,2.83,2.83,0,0,0,.66,1.89,2.28,2.28,0,0,0,1.83.78,2.85,2.85,0,0,0,1.31-.29,2.94,2.94,0,0,0,1-.81,3.4,3.4,0,0,0,.63-1.15,4.19,4.19,0,0,0,.21-1.32,3.1,3.1,0,0,0-.31-1.43,2.31,2.31,0,0,0-2.13-1.31Z" transform="translate(-59.48 -21.02)"/><path id="Path_2638" data-name="Path 2638" class="cls-6" d="M125.17,62.55l1.23-8.26H123l.17-1.07h0v0a1,1,0,0,1,1-.89h8.23l-.17,1.14v0a1,1,0,0,1-1,.83h-2.55l-1.21,8.26Z" transform="translate(-59.48 -21.02)"/><path id="Path_2639" data-name="Path 2639" class="cls-6" d="M139.44,53.16a3.68,3.68,0,0,0-2.71-.86h-3.29l-1.5,10.25h1.27a1.21,1.21,0,0,0,1.18-1v0l.4-2.72h1.86a4,4,0,0,0,2-.48,2.94,2.94,0,0,0,1.18-1.24,4,4,0,0,0,.38-1.7A3.08,3.08,0,0,0,139.44,53.16Zm-1.6,2.31a2,2,0,0,1-1.7,1.86H135l.52-3.5a3.88,3.88,0,0,1,1-.06c.62.06,1.48.25,1.35,1.7Z" transform="translate(-59.48 -21.02)"/><path id="Path_2640" data-name="Path 2640" class="cls-6" d="M120,52.29l-1,6.62-2.92-4.71a3.74,3.74,0,0,0-3.28-1.91h-.14L111.2,62.54h2.31l1-6.63,2.92,4.71a3.76,3.76,0,0,0,3.28,1.92h.14l1.51-10.26Zm-1,6.63Z" transform="translate(-59.48 -21.02)"/><path id="Path_2641" data-name="Path 2641" class="cls-6" d="M145.92,52.3h-.79a2.9,2.9,0,0,0-2.5,1.47l-.08.14,0,.06-4.39,8.58h2.42l1.14-2.36H145l.28,2.36h2.5Zm-3.54,6.45,2-4.06.55,4.06Z" transform="translate(-59.48 -21.02)"/><path id="Path_2642" data-name="Path 2642" class="cls-6" d="M158.12,60.36,157.8,60a5.72,5.72,0,0,0,.43-.9,7,7,0,0,0,.39-2.31,5,5,0,0,0-.61-2.46,4.1,4.1,0,0,0-1.69-1.61,5.13,5.13,0,0,0-2.43-.56,6.19,6.19,0,0,0-2.17.37,5.62,5.62,0,0,0-1.83,1.11,5.21,5.21,0,0,0-1.26,1.85,6.54,6.54,0,0,0-.47,2.51,4.63,4.63,0,0,0,.72,2.64,4.21,4.21,0,0,0,1.84,1.5,5.79,5.79,0,0,0,2.29.47,6.07,6.07,0,0,0,2.31-.43,5.45,5.45,0,0,0,.68-.35l.31.3a1.25,1.25,0,0,0,.91.37h1.28V61.26h0A1.27,1.27,0,0,0,158.12,60.36Zm-5.07.22a2.29,2.29,0,0,1-1.83-.79,2.79,2.79,0,0,1-.66-1.88,4.12,4.12,0,0,1,.37-1.69,3.44,3.44,0,0,1,1.1-1.4,2.84,2.84,0,0,1,1.73-.56,2.31,2.31,0,0,1,2.14,1.31,3.25,3.25,0,0,1,.31,1.44,4.18,4.18,0,0,1-.21,1.31,3.74,3.74,0,0,1-.63,1.16,3.14,3.14,0,0,1-1,.8,3,3,0,0,1-1.31.3Z" transform="translate(-59.48 -21.02)"/><path id="Path_2643" data-name="Path 2643" class="cls-6" d="M99.64,54.61s-3.34-1-5,.53-1.64,4,.12,5,4.61-.3,4.81-.61a3,3,0,0,1-.22,1.93c-.48,1-3.23,1.56-5.45.8A4.34,4.34,0,0,1,91,57.41a5.53,5.53,0,0,1,4.43-5,11.37,11.37,0,0,1,5.22.23Z" transform="translate(-59.48 -21.02)"/></g></g></g></g></g></g></svg>