<svg id="Layer_1" data-name="Layer 1" xmlns="http://www.w3.org/2000/svg" viewBox="0 0 144.85 45"><defs><style>.cls-1{fill:#004cac;}.cls-2{fill:#00b5f1;}.cls-3{fill:#004e9e;}.cls-4{fill:#003062;}.cls-5{fill:#00b4ef;}.cls-6{fill:#007bc3;}</style></defs><g id="Group_1561" data-name="Group 1561"><g id="Group_1558" data-name="Group 1558"><path id="Path_2093" data-name="Path 2093" class="cls-1" d="M148.25,11.32a2.32,2.32,0,0,1-3.29,0,2.3,2.3,0,0,1-.66-1.64A2.18,2.18,0,0,1,145,8a2.26,2.26,0,0,1,1.6-.63A2.32,2.32,0,0,1,149,9.65a2.24,2.24,0,0,1-.7,1.67m-3-3a1.9,1.9,0,0,0-.56,1.35,1.87,1.87,0,0,0,.57,1.37,1.9,1.9,0,0,0,2.7,0,1.87,1.87,0,0,0,.57-1.37A1.9,1.9,0,0,0,148,8.3a1.78,1.78,0,0,0-1.35-.57,1.81,1.81,0,0,0-1.37.57m.35,2.64V8.36h1.24a1.28,1.28,0,0,1,.51.13.64.64,0,0,1,.34.62.55.55,0,0,1-.17.47.93.93,0,0,1-.45.18.73.73,0,0,1,.37.14.7.7,0,0,1,.22.58v.23s0,0,0,.07,0,.06,0,.08l0,.07h-.64a2.11,2.11,0,0,1-.05-.35,1.12,1.12,0,0,0,0-.32.32.32,0,0,0-.19-.19.59.59,0,0,0-.23,0h-.29v.91Zm1.23-2.06a1.06,1.06,0,0,0-.39-.06h-.17v.75h.26a.61.61,0,0,0,.37-.1.33.33,0,0,0,.14-.3.29.29,0,0,0-.21-.29" transform="translate(-20.57 -2.5)"/><path id="Path_2094" data-name="Path 2094" class="cls-1" d="M98.73,13a4.48,4.48,0,0,1-1.7-.34,3.06,3.06,0,0,1-1.37-1.12,3.41,3.41,0,0,1-.54-2,4.81,4.81,0,0,1,.35-1.87,4,4,0,0,1,.94-1.37,4.22,4.22,0,0,1,1.36-.83,4.65,4.65,0,0,1,1.61-.27,3.79,3.79,0,0,1,1.81.42,3,3,0,0,1,1.26,1.2,3.65,3.65,0,0,1,.45,1.83,4.82,4.82,0,0,1-.29,1.72,4,4,0,0,1-.84,1.37,3.64,3.64,0,0,1-1.32.91,4.26,4.26,0,0,1-1.73.33m.57-6.24A2.13,2.13,0,0,0,98,7.17a2.61,2.61,0,0,0-.82,1,3.25,3.25,0,0,0-.28,1.26,2.11,2.11,0,0,0,.5,1.4,1.68,1.68,0,0,0,1.36.58,2.15,2.15,0,0,0,1-.21,2.46,2.46,0,0,0,.76-.6,2.89,2.89,0,0,0,.47-.86,3.28,3.28,0,0,0,.15-1,2.32,2.32,0,0,0-.23-1.07,1.7,1.7,0,0,0-1.59-1" transform="translate(-20.57 -2.5)"/><path id="Path_2095" data-name="Path 2095" class="cls-1" d="M113.48,12.92l.92-6.15h-2.51L112,6h0V6a.74.74,0,0,1,.73-.66h6.12l-.12.85h0a.74.74,0,0,1-.73.62h-1.9l-.9,6.15Z" transform="translate(-20.57 -2.5)"/><path id="Path_2096" data-name="Path 2096" class="cls-1" d="M124.09,5.93a2.77,2.77,0,0,0-2-.64h-2.45l-1.11,7.63h.94a.89.89,0,0,0,.88-.77h0l.3-2H122a3.1,3.1,0,0,0,1.52-.36,2.23,2.23,0,0,0,.88-.92,2.94,2.94,0,0,0,.28-1.27,2.28,2.28,0,0,0-.62-1.64M122.9,7.65A1.45,1.45,0,0,1,121.64,9h-.84l.39-2.6a3.35,3.35,0,0,1,.71,0c.46,0,1.1.18,1,1.26" transform="translate(-20.57 -2.5)"/><path id="Path_2097" data-name="Path 2097" class="cls-1" d="M109.64,5.28l-.72,4.94-2.17-3.5a2.78,2.78,0,0,0-2.44-1.43h-.1l-1.13,7.63h1.72L105.53,8l2.17,3.5a2.79,2.79,0,0,0,2.44,1.43h.11l1.12-7.63Zm-.72,4.94Z" transform="translate(-20.57 -2.5)"/><path id="Path_2098" data-name="Path 2098" class="cls-1" d="M128.92,5.29h-.59a2.17,2.17,0,0,0-1.86,1.1l-.06.1,0,0-3.26,6.38h1.8l.85-1.76h2.49l.2,1.76h1.85Zm-2.64,4.8,1.47-3,.41,3Z" transform="translate(-20.57 -2.5)"/><path id="Path_2099" data-name="Path 2099" class="cls-1" d="M138,11.29l-.24-.24a3.43,3.43,0,0,0,.32-.67,4.79,4.79,0,0,0,.29-1.72,3.65,3.65,0,0,0-.45-1.83,3,3,0,0,0-1.26-1.2,3.91,3.91,0,0,0-1.81-.42,4.66,4.66,0,0,0-1.61.28,4,4,0,0,0-1.36.83,3.82,3.82,0,0,0-.94,1.37,4.78,4.78,0,0,0-.35,1.87,3.45,3.45,0,0,0,.54,2,3.11,3.11,0,0,0,1.37,1.11,4.31,4.31,0,0,0,1.7.35,4.41,4.41,0,0,0,1.72-.32,4.74,4.74,0,0,0,.5-.26l.23.22a.91.91,0,0,0,.68.28h1V12h0a1,1,0,0,0-.28-.67m-3.77.16a1.71,1.71,0,0,1-1.36-.58,2.11,2.11,0,0,1-.5-1.4,3.21,3.21,0,0,1,.28-1.26,2.61,2.61,0,0,1,.82-1,2.14,2.14,0,0,1,1.29-.42,1.72,1.72,0,0,1,1.59,1,2.32,2.32,0,0,1,.23,1.07,3.28,3.28,0,0,1-.15,1,2.92,2.92,0,0,1-.48.86,2.31,2.31,0,0,1-.75.6,2.18,2.18,0,0,1-1,.21" transform="translate(-20.57 -2.5)"/><path id="Path_2100" data-name="Path 2100" class="cls-1" d="M94.48,7S92,6.24,90.8,7.41s-1.23,3,.09,3.74,3.43-.22,3.58-.45a2.27,2.27,0,0,1-.16,1.43c-.36.74-2.4,1.17-4.06.6A3.23,3.23,0,0,1,88.07,9.1a4.13,4.13,0,0,1,3.3-3.73,8.49,8.49,0,0,1,3.88.18Z" transform="translate(-20.57 -2.5)"/><path id="Path_2101" data-name="Path 2101" class="cls-1" d="M143.12,7.32h-1.3a1,1,0,0,0-1,.81l-.72,4.79h0a3.53,3.53,0,0,0,1.38-1.19,6.79,6.79,0,0,0,1.31-2.29Z" transform="translate(-20.57 -2.5)"/><path id="Path_2102" data-name="Path 2102" class="cls-1" d="M142.29,6.64a1.09,1.09,0,1,0-1.09-1.09,1.08,1.08,0,0,0,1.09,1.09h0" transform="translate(-20.57 -2.5)"/><path id="Path_2103" data-name="Path 2103" class="cls-2" d="M141.51,11.73a3.56,3.56,0,0,1-1.39,1.19h1.3a1,1,0,0,0,1-.8l.39-2.68a6.63,6.63,0,0,1-1.31,2.29" transform="translate(-20.57 -2.5)"/></g><g id="Group_1559" data-name="Group 1559"><path id="Path_2104" data-name="Path 2104" class="cls-2" d="M88,18.65h2l6.9,12.63,0-12.63h1.59V33.51h-2L89.6,20.91l0,12.6H88.05Z" transform="translate(-20.57 -2.5)"/><path id="Path_2105" data-name="Path 2105" class="cls-2" d="M100.9,25.74c0-2.69,1.72-4.33,4.48-4.33s4.48,1.64,4.48,4.33v3.65c0,2.69-1.72,4.33-4.48,4.33s-4.48-1.64-4.48-4.33Zm1.51,3.39c0,2.13,1.06,3.23,3,3.23s3-1.1,3-3.23V26c0-2.13-1.06-3.23-3-3.23s-3,1.1-3,3.23Zm3.86-11.28h1.8l-2,2.59h-1.47Z" transform="translate(-20.57 -2.5)"/><path id="Path_2106" data-name="Path 2106" class="cls-2" d="M112.49,21.62h1.33l.11,1.3A4.22,4.22,0,0,1,117,21.41a3.2,3.2,0,0,1,3.24,1.78,4.41,4.41,0,0,1,3.33-1.78c2.66,0,3.7,1.32,3.7,4V33.5h-1.52V25.7c0-2-.38-2.93-2.29-2.93a3.78,3.78,0,0,0-2.86,1.65,10,10,0,0,1,.08,1.21V33.5h-1.5V25.9c0-2-.38-3.14-2.29-3.14a3.85,3.85,0,0,0-2.91,1.7v9h-1.51Z" transform="translate(-20.57 -2.5)"/><path id="Path_2107" data-name="Path 2107" class="cls-2" d="M130,23l-1.34-.13V21.62h2.85V33.5H130Zm-.25-4.22c0-.79.38-1.15.95-1.15s1,.36,1,1.15a1,1,0,0,1-.8,1.08h-.22C130.12,19.82,129.74,19.48,129.74,18.74Z" transform="translate(-20.57 -2.5)"/><path id="Path_2108" data-name="Path 2108" class="cls-2" d="M134.26,21.62h1.33l.11,1.3A4.7,4.7,0,0,1,139,21.41c2.65,0,3.95,1.32,3.95,4V33.5h-1.51V25.7c0-2-.64-2.93-2.55-2.93a4.21,4.21,0,0,0-3.11,1.7v9h-1.51Z" transform="translate(-20.57 -2.5)"/><path id="Path_2109" data-name="Path 2109" class="cls-2" d="M145.52,25.63c0-2.69,1.38-4.22,4-4.22a5,5,0,0,1,3.38,1.51l.1-1.29h1.34V33.51H153l-.1-1.3a4.88,4.88,0,0,1-3.38,1.51c-2.65,0-4-1.53-4-4.22ZM147,29.22c0,2,.72,3.14,2.63,3.14a4.41,4.41,0,0,0,3.2-1.7V24.47a4.54,4.54,0,0,0-3.2-1.7c-1.91,0-2.63,1.1-2.63,3.14Z" transform="translate(-20.57 -2.5)"/><path id="Path_2110" data-name="Path 2110" class="cls-2" d="M156.62,29.79h1.51v.13c0,1.27.93,2.52,3,2.52,1.91,0,2.76-1,2.76-2.14v-.15c0-1.29-1.08-1.7-2.82-1.89-2.12-.23-4.22-.89-4.22-3.22v-.36c0-1.89,1.33-3.35,4.09-3.35s4.18,1.78,4.18,3.67v.34h-1.46v-.13c0-1.27-.62-2.53-2.72-2.53-1.84,0-2.59.87-2.59,2v.15c0,1.42,1.23,1.82,2.93,2,1.95.22,4.12.73,4.12,3.08v.42c0,1.87-1.51,3.42-4.27,3.42s-4.54-1.63-4.54-3.67Z" transform="translate(-20.57 -2.5)"/></g><g id="Group_1560" data-name="Group 1560"><path id="Path_2111" data-name="Path 2111" class="cls-3" d="M31.86,42.42V24.69a5.22,5.22,0,0,1,5.38-5.07h0a5.23,5.23,0,0,1,5.39,5.07V42.42a5.25,5.25,0,0,1-5.39,5.08h0A5.25,5.25,0,0,1,31.86,42.42Z" transform="translate(-20.57 -2.5)"/><path id="Path_2112" data-name="Path 2112" class="cls-4" d="M37.24,19.62h0a5.23,5.23,0,0,1,5.39,5.07v8.1l-5.4-5.08h0l-5.39,5.07V24.69A5.23,5.23,0,0,1,37.24,19.62Z" transform="translate(-20.57 -2.5)"/><path id="Path_2113" data-name="Path 2113" class="cls-5" d="M42.37,30.47l-8.94-8.42h0a5.63,5.63,0,0,0-7.62,0l3.88-3.65a11.16,11.16,0,0,1,15.11,0L50,23.3Z" transform="translate(-20.57 -2.5)"/><path id="Path_2114" data-name="Path 2114" class="cls-6" d="M22.1,32.91a5.21,5.21,0,0,1,0-7.38l.11-.11,3.6-3.37a5.63,5.63,0,0,1,7.62,0h0l3.81,3.59L29.37,33A5.22,5.22,0,0,1,22.1,32.91Z" transform="translate(-20.57 -2.5)"/><path id="Path_2115" data-name="Path 2115" class="cls-3" d="M25.81,22.05a5.63,5.63,0,0,1,7.62,0h0l3.81,3.59L35.79,27,32,23.42h0a5.61,5.61,0,0,0-7.62,0Z" transform="translate(-20.57 -2.5)"/><path id="Path_2116" data-name="Path 2116" class="cls-5" d="M31.43,8.31h0A5.82,5.82,0,0,1,37.24,2.5h0a5.82,5.82,0,0,1,5.81,5.82h0a5.82,5.82,0,0,1-5.81,5.82h0A5.82,5.82,0,0,1,31.43,8.31Z" transform="translate(-20.57 -2.5)"/><path id="Path_2117" data-name="Path 2117" class="cls-3" d="M57.25,42.42V24.69a5.22,5.22,0,0,1,5.38-5.07h0A5.23,5.23,0,0,1,68,24.69V42.42a5.25,5.25,0,0,1-5.39,5.08h0A5.25,5.25,0,0,1,57.25,42.42Z" transform="translate(-20.57 -2.5)"/><path id="Path_2118" data-name="Path 2118" class="cls-4" d="M62.63,19.62h0A5.23,5.23,0,0,1,68,24.69v8.1l-5.4-5.08h0l-5.39,5.07V24.69A5.23,5.23,0,0,1,62.63,19.62Z" transform="translate(-20.57 -2.5)"/><path id="Path_2119" data-name="Path 2119" class="cls-5" d="M56.82,8.31h0A5.82,5.82,0,0,1,62.63,2.5h0a5.82,5.82,0,0,1,5.81,5.82h0a5.82,5.82,0,0,1-5.81,5.82h0a5.82,5.82,0,0,1-5.82-5.82Z" transform="translate(-20.57 -2.5)"/><path id="Path_2120" data-name="Path 2120" class="cls-6" d="M55,18.47l-8.87,8.36h0a5.63,5.63,0,0,1-7.62,0l3.87,3.64a11.15,11.15,0,0,0,15.12,0l5.12-4.82Z" transform="translate(-20.57 -2.5)"/><path id="Path_2121" data-name="Path 2121" class="cls-5" d="M55.07,18.4a11.19,11.19,0,0,1,15.12,0l7.43,7a5.23,5.23,0,0,1,.22,7.39l-.11.11h0a5.22,5.22,0,0,1-7.27.11l-11.65-11h0a5.63,5.63,0,0,0-7.62,0Z" transform="translate(-20.57 -2.5)"/><path id="Path_2122" data-name="Path 2122" class="cls-3" d="M51.2,22.05a5.63,5.63,0,0,1,7.62,0h0l3.81,3.59L61.18,27l-3.81-3.59h0a5.62,5.62,0,0,0-7.63,0Z" transform="translate(-20.57 -2.5)"/></g></g></svg>